%TF.GenerationSoftware,KiCad,Pcbnew,(6.0.2-0)*%
%TF.CreationDate,2022-03-31T23:17:21+02:00*%
%TF.ProjectId,BadPico,42616450-6963-46f2-9e6b-696361645f70,rev?*%
%TF.SameCoordinates,Original*%
%TF.FileFunction,Soldermask,Top*%
%TF.FilePolarity,Negative*%
%FSLAX46Y46*%
G04 Gerber Fmt 4.6, Leading zero omitted, Abs format (unit mm)*
G04 Created by KiCad (PCBNEW (6.0.2-0)) date 2022-03-31 23:17:21*
%MOMM*%
%LPD*%
G01*
G04 APERTURE LIST*
G04 Aperture macros list*
%AMRoundRect*
0 Rectangle with rounded corners*
0 $1 Rounding radius*
0 $2 $3 $4 $5 $6 $7 $8 $9 X,Y pos of 4 corners*
0 Add a 4 corners polygon primitive as box body*
4,1,4,$2,$3,$4,$5,$6,$7,$8,$9,$2,$3,0*
0 Add four circle primitives for the rounded corners*
1,1,$1+$1,$2,$3*
1,1,$1+$1,$4,$5*
1,1,$1+$1,$6,$7*
1,1,$1+$1,$8,$9*
0 Add four rect primitives between the rounded corners*
20,1,$1+$1,$2,$3,$4,$5,0*
20,1,$1+$1,$4,$5,$6,$7,0*
20,1,$1+$1,$6,$7,$8,$9,0*
20,1,$1+$1,$8,$9,$2,$3,0*%
G04 Aperture macros list end*
%ADD10RoundRect,0.135000X-0.135000X-0.185000X0.135000X-0.185000X0.135000X0.185000X-0.135000X0.185000X0*%
%ADD11RoundRect,0.140000X0.170000X-0.140000X0.170000X0.140000X-0.170000X0.140000X-0.170000X-0.140000X0*%
%ADD12RoundRect,0.140000X0.140000X0.170000X-0.140000X0.170000X-0.140000X-0.170000X0.140000X-0.170000X0*%
%ADD13RoundRect,0.135000X0.185000X-0.135000X0.185000X0.135000X-0.185000X0.135000X-0.185000X-0.135000X0*%
%ADD14R,1.000000X1.500000*%
%ADD15C,1.000000*%
%ADD16RoundRect,0.147500X-0.147500X-0.172500X0.147500X-0.172500X0.147500X0.172500X-0.147500X0.172500X0*%
%ADD17R,2.000000X0.800000*%
%ADD18RoundRect,0.225000X-0.225000X-0.250000X0.225000X-0.250000X0.225000X0.250000X-0.225000X0.250000X0*%
%ADD19R,1.100000X1.100000*%
%ADD20RoundRect,0.147500X0.147500X0.172500X-0.147500X0.172500X-0.147500X-0.172500X0.147500X-0.172500X0*%
%ADD21RoundRect,0.050000X-0.387500X-0.050000X0.387500X-0.050000X0.387500X0.050000X-0.387500X0.050000X0*%
%ADD22RoundRect,0.050000X-0.050000X-0.387500X0.050000X-0.387500X0.050000X0.387500X-0.050000X0.387500X0*%
%ADD23RoundRect,0.144000X-1.456000X-1.456000X1.456000X-1.456000X1.456000X1.456000X-1.456000X1.456000X0*%
%ADD24RoundRect,0.140000X-0.170000X0.140000X-0.170000X-0.140000X0.170000X-0.140000X0.170000X0.140000X0*%
%ADD25C,1.200000*%
%ADD26RoundRect,0.300000X-0.300000X-0.700000X0.300000X-0.700000X0.300000X0.700000X-0.300000X0.700000X0*%
%ADD27RoundRect,0.300000X0.300000X0.700000X-0.300000X0.700000X-0.300000X-0.700000X0.300000X-0.700000X0*%
%ADD28O,1.200000X4.012500*%
%ADD29RoundRect,0.140000X-0.140000X-0.170000X0.140000X-0.170000X0.140000X0.170000X-0.140000X0.170000X0*%
%ADD30RoundRect,0.125000X0.125000X-0.262500X0.125000X0.262500X-0.125000X0.262500X-0.125000X-0.262500X0*%
%ADD31R,4.000000X3.400000*%
%ADD32RoundRect,0.135000X0.135000X0.185000X-0.135000X0.185000X-0.135000X-0.185000X0.135000X-0.185000X0*%
%ADD33RoundRect,0.150000X-0.150000X0.512500X-0.150000X-0.512500X0.150000X-0.512500X0.150000X0.512500X0*%
%ADD34RoundRect,0.225000X0.250000X-0.225000X0.250000X0.225000X-0.250000X0.225000X-0.250000X-0.225000X0*%
%ADD35RoundRect,0.243750X0.243750X0.456250X-0.243750X0.456250X-0.243750X-0.456250X0.243750X-0.456250X0*%
%ADD36R,0.800000X2.000000*%
%ADD37R,2.000000X2.400000*%
%ADD38RoundRect,0.135000X-0.185000X0.135000X-0.185000X-0.135000X0.185000X-0.135000X0.185000X0.135000X0*%
%ADD39RoundRect,0.150000X-0.587500X-0.150000X0.587500X-0.150000X0.587500X0.150000X-0.587500X0.150000X0*%
G04 APERTURE END LIST*
D10*
%TO.C,R10*%
X119035000Y-52810000D03*
X120055000Y-52810000D03*
%TD*%
D11*
%TO.C,C7*%
X113805000Y-49505000D03*
X113805000Y-48545000D03*
%TD*%
D12*
%TO.C,C6*%
X108680000Y-51815000D03*
X107720000Y-51815000D03*
%TD*%
D13*
%TO.C,R9*%
X112365000Y-60310000D03*
X112365000Y-59290000D03*
%TD*%
D14*
%TO.C,SW1*%
X116975000Y-66135000D03*
X108675000Y-66135000D03*
D15*
X110825000Y-66135000D03*
X112825000Y-66135000D03*
X114825000Y-66135000D03*
%TD*%
D16*
%TO.C,D3*%
X119070000Y-53855000D03*
X120040000Y-53855000D03*
%TD*%
D13*
%TO.C,R4*%
X115160000Y-46895000D03*
X115160000Y-45875000D03*
%TD*%
D17*
%TO.C,SW3*%
X116935000Y-58830000D03*
X116935000Y-63030000D03*
%TD*%
D18*
%TO.C,C13*%
X118235000Y-42060000D03*
X119785000Y-42060000D03*
%TD*%
D19*
%TO.C,D2*%
X119700000Y-38115000D03*
X116900000Y-38115000D03*
%TD*%
D20*
%TO.C,D4*%
X121955000Y-52805000D03*
X120985000Y-52805000D03*
%TD*%
D21*
%TO.C,U3*%
X109982500Y-51515000D03*
X109982500Y-51915000D03*
X109982500Y-52315000D03*
X109982500Y-52715000D03*
X109982500Y-53115000D03*
X109982500Y-53515000D03*
X109982500Y-53915000D03*
X109982500Y-54315000D03*
X109982500Y-54715000D03*
X109982500Y-55115000D03*
X109982500Y-55515000D03*
X109982500Y-55915000D03*
X109982500Y-56315000D03*
X109982500Y-56715000D03*
D22*
X110820000Y-57552500D03*
X111220000Y-57552500D03*
X111620000Y-57552500D03*
X112020000Y-57552500D03*
X112420000Y-57552500D03*
X112820000Y-57552500D03*
X113220000Y-57552500D03*
X113620000Y-57552500D03*
X114020000Y-57552500D03*
X114420000Y-57552500D03*
X114820000Y-57552500D03*
X115220000Y-57552500D03*
X115620000Y-57552500D03*
X116020000Y-57552500D03*
D21*
X116857500Y-56715000D03*
X116857500Y-56315000D03*
X116857500Y-55915000D03*
X116857500Y-55515000D03*
X116857500Y-55115000D03*
X116857500Y-54715000D03*
X116857500Y-54315000D03*
X116857500Y-53915000D03*
X116857500Y-53515000D03*
X116857500Y-53115000D03*
X116857500Y-52715000D03*
X116857500Y-52315000D03*
X116857500Y-51915000D03*
X116857500Y-51515000D03*
D22*
X116020000Y-50677500D03*
X115620000Y-50677500D03*
X115220000Y-50677500D03*
X114820000Y-50677500D03*
X114420000Y-50677500D03*
X114020000Y-50677500D03*
X113620000Y-50677500D03*
X113220000Y-50677500D03*
X112820000Y-50677500D03*
X112420000Y-50677500D03*
X112020000Y-50677500D03*
X111620000Y-50677500D03*
X111220000Y-50677500D03*
X110820000Y-50677500D03*
D23*
X113420000Y-54115000D03*
%TD*%
D24*
%TO.C,C4*%
X113350000Y-59305000D03*
X113350000Y-60265000D03*
%TD*%
D25*
%TO.C,J1*%
X115550000Y-32575000D03*
X111050000Y-32575000D03*
D26*
X116800000Y-35185000D03*
D27*
X114300000Y-35185000D03*
X112300000Y-35185000D03*
X109800000Y-35185000D03*
D28*
X107600000Y-32575000D03*
X119000000Y-32575000D03*
%TD*%
D29*
%TO.C,C2*%
X118075000Y-51780000D03*
X119035000Y-51780000D03*
%TD*%
D30*
%TO.C,U1*%
X106655000Y-48967500D03*
X107925000Y-48967500D03*
X109195000Y-48967500D03*
X110465000Y-48967500D03*
X110465000Y-43642500D03*
X109195000Y-43642500D03*
X107925000Y-43642500D03*
X106655000Y-43642500D03*
D31*
X108560000Y-46305000D03*
%TD*%
D32*
%TO.C,R8*%
X116625000Y-39815000D03*
X115605000Y-39815000D03*
%TD*%
D11*
%TO.C,C10*%
X117520000Y-49475000D03*
X117520000Y-48515000D03*
%TD*%
%TO.C,C1*%
X116545000Y-49475000D03*
X116545000Y-48515000D03*
%TD*%
D33*
%TO.C,U2*%
X118430000Y-44127500D03*
X117480000Y-44127500D03*
X116530000Y-44127500D03*
X116530000Y-46402500D03*
X118430000Y-46402500D03*
%TD*%
D24*
%TO.C,C9*%
X114350000Y-59305000D03*
X114350000Y-60265000D03*
%TD*%
D32*
%TO.C,R11*%
X121990000Y-53860000D03*
X120970000Y-53860000D03*
%TD*%
D34*
%TO.C,C14*%
X120030000Y-46065000D03*
X120030000Y-44515000D03*
%TD*%
D13*
%TO.C,FB1*%
X116605000Y-41950000D03*
X116605000Y-40930000D03*
%TD*%
D32*
%TO.C,R6*%
X106610000Y-50140000D03*
X105590000Y-50140000D03*
%TD*%
D24*
%TO.C,C11*%
X112795000Y-47465000D03*
X112795000Y-48425000D03*
%TD*%
D35*
%TO.C,F1*%
X119747500Y-40290000D03*
X117872500Y-40290000D03*
%TD*%
D11*
%TO.C,C12*%
X105065000Y-42445000D03*
X105065000Y-41485000D03*
%TD*%
D13*
%TO.C,R3*%
X114155000Y-46885000D03*
X114155000Y-45865000D03*
%TD*%
D12*
%TO.C,C5*%
X108705000Y-54830000D03*
X107745000Y-54830000D03*
%TD*%
D36*
%TO.C,SW2*%
X110355000Y-39845000D03*
X106155000Y-39845000D03*
%TD*%
D10*
%TO.C,R5*%
X107740000Y-55840000D03*
X108760000Y-55840000D03*
%TD*%
D29*
%TO.C,C16*%
X109930000Y-63000000D03*
X110890000Y-63000000D03*
%TD*%
D37*
%TO.C,Y1*%
X110080000Y-60585000D03*
X106380000Y-60585000D03*
%TD*%
D38*
%TO.C,R7*%
X105070000Y-39540000D03*
X105070000Y-40560000D03*
%TD*%
D12*
%TO.C,C15*%
X106520000Y-63000000D03*
X105560000Y-63000000D03*
%TD*%
D11*
%TO.C,C8*%
X115565000Y-49475000D03*
X115565000Y-48515000D03*
%TD*%
D24*
%TO.C,C3*%
X118085000Y-56805000D03*
X118085000Y-57765000D03*
%TD*%
D39*
%TO.C,Q1*%
X119602500Y-55185000D03*
X119602500Y-57085000D03*
X121477500Y-56135000D03*
%TD*%
M02*
