%TF.GenerationSoftware,KiCad,Pcbnew,(6.0.2-0)*%
%TF.CreationDate,2022-03-31T23:17:21+02:00*%
%TF.ProjectId,BadPico,42616450-6963-46f2-9e6b-696361645f70,rev?*%
%TF.SameCoordinates,Original*%
%TF.FileFunction,Copper,L1,Top*%
%TF.FilePolarity,Positive*%
%FSLAX46Y46*%
G04 Gerber Fmt 4.6, Leading zero omitted, Abs format (unit mm)*
G04 Created by KiCad (PCBNEW (6.0.2-0)) date 2022-03-31 23:17:21*
%MOMM*%
%LPD*%
G01*
G04 APERTURE LIST*
G04 Aperture macros list*
%AMRoundRect*
0 Rectangle with rounded corners*
0 $1 Rounding radius*
0 $2 $3 $4 $5 $6 $7 $8 $9 X,Y pos of 4 corners*
0 Add a 4 corners polygon primitive as box body*
4,1,4,$2,$3,$4,$5,$6,$7,$8,$9,$2,$3,0*
0 Add four circle primitives for the rounded corners*
1,1,$1+$1,$2,$3*
1,1,$1+$1,$4,$5*
1,1,$1+$1,$6,$7*
1,1,$1+$1,$8,$9*
0 Add four rect primitives between the rounded corners*
20,1,$1+$1,$2,$3,$4,$5,0*
20,1,$1+$1,$4,$5,$6,$7,0*
20,1,$1+$1,$6,$7,$8,$9,0*
20,1,$1+$1,$8,$9,$2,$3,0*%
G04 Aperture macros list end*
%TA.AperFunction,SMDPad,CuDef*%
%ADD10RoundRect,0.135000X-0.135000X-0.185000X0.135000X-0.185000X0.135000X0.185000X-0.135000X0.185000X0*%
%TD*%
%TA.AperFunction,SMDPad,CuDef*%
%ADD11RoundRect,0.140000X0.170000X-0.140000X0.170000X0.140000X-0.170000X0.140000X-0.170000X-0.140000X0*%
%TD*%
%TA.AperFunction,SMDPad,CuDef*%
%ADD12RoundRect,0.140000X0.140000X0.170000X-0.140000X0.170000X-0.140000X-0.170000X0.140000X-0.170000X0*%
%TD*%
%TA.AperFunction,SMDPad,CuDef*%
%ADD13RoundRect,0.135000X0.185000X-0.135000X0.185000X0.135000X-0.185000X0.135000X-0.185000X-0.135000X0*%
%TD*%
%TA.AperFunction,WasherPad*%
%ADD14R,1.000000X1.500000*%
%TD*%
%TA.AperFunction,ComponentPad*%
%ADD15C,1.000000*%
%TD*%
%TA.AperFunction,SMDPad,CuDef*%
%ADD16RoundRect,0.147500X-0.147500X-0.172500X0.147500X-0.172500X0.147500X0.172500X-0.147500X0.172500X0*%
%TD*%
%TA.AperFunction,SMDPad,CuDef*%
%ADD17R,2.000000X0.800000*%
%TD*%
%TA.AperFunction,SMDPad,CuDef*%
%ADD18RoundRect,0.225000X-0.225000X-0.250000X0.225000X-0.250000X0.225000X0.250000X-0.225000X0.250000X0*%
%TD*%
%TA.AperFunction,SMDPad,CuDef*%
%ADD19R,1.100000X1.100000*%
%TD*%
%TA.AperFunction,SMDPad,CuDef*%
%ADD20RoundRect,0.147500X0.147500X0.172500X-0.147500X0.172500X-0.147500X-0.172500X0.147500X-0.172500X0*%
%TD*%
%TA.AperFunction,SMDPad,CuDef*%
%ADD21RoundRect,0.050000X-0.387500X-0.050000X0.387500X-0.050000X0.387500X0.050000X-0.387500X0.050000X0*%
%TD*%
%TA.AperFunction,SMDPad,CuDef*%
%ADD22RoundRect,0.050000X-0.050000X-0.387500X0.050000X-0.387500X0.050000X0.387500X-0.050000X0.387500X0*%
%TD*%
%TA.AperFunction,ComponentPad*%
%ADD23C,0.600000*%
%TD*%
%TA.AperFunction,SMDPad,CuDef*%
%ADD24RoundRect,0.144000X-1.456000X-1.456000X1.456000X-1.456000X1.456000X1.456000X-1.456000X1.456000X0*%
%TD*%
%TA.AperFunction,SMDPad,CuDef*%
%ADD25RoundRect,0.140000X-0.170000X0.140000X-0.170000X-0.140000X0.170000X-0.140000X0.170000X0.140000X0*%
%TD*%
%TA.AperFunction,WasherPad*%
%ADD26C,1.200000*%
%TD*%
%TA.AperFunction,SMDPad,CuDef*%
%ADD27RoundRect,0.300000X-0.300000X-0.700000X0.300000X-0.700000X0.300000X0.700000X-0.300000X0.700000X0*%
%TD*%
%TA.AperFunction,SMDPad,CuDef*%
%ADD28RoundRect,0.300000X0.300000X0.700000X-0.300000X0.700000X-0.300000X-0.700000X0.300000X-0.700000X0*%
%TD*%
%TA.AperFunction,ComponentPad*%
%ADD29O,1.200000X4.012500*%
%TD*%
%TA.AperFunction,SMDPad,CuDef*%
%ADD30RoundRect,0.140000X-0.140000X-0.170000X0.140000X-0.170000X0.140000X0.170000X-0.140000X0.170000X0*%
%TD*%
%TA.AperFunction,SMDPad,CuDef*%
%ADD31RoundRect,0.125000X0.125000X-0.262500X0.125000X0.262500X-0.125000X0.262500X-0.125000X-0.262500X0*%
%TD*%
%TA.AperFunction,SMDPad,CuDef*%
%ADD32R,4.000000X3.400000*%
%TD*%
%TA.AperFunction,SMDPad,CuDef*%
%ADD33RoundRect,0.135000X0.135000X0.185000X-0.135000X0.185000X-0.135000X-0.185000X0.135000X-0.185000X0*%
%TD*%
%TA.AperFunction,SMDPad,CuDef*%
%ADD34RoundRect,0.150000X-0.150000X0.512500X-0.150000X-0.512500X0.150000X-0.512500X0.150000X0.512500X0*%
%TD*%
%TA.AperFunction,SMDPad,CuDef*%
%ADD35RoundRect,0.225000X0.250000X-0.225000X0.250000X0.225000X-0.250000X0.225000X-0.250000X-0.225000X0*%
%TD*%
%TA.AperFunction,SMDPad,CuDef*%
%ADD36RoundRect,0.243750X0.243750X0.456250X-0.243750X0.456250X-0.243750X-0.456250X0.243750X-0.456250X0*%
%TD*%
%TA.AperFunction,SMDPad,CuDef*%
%ADD37R,0.800000X2.000000*%
%TD*%
%TA.AperFunction,SMDPad,CuDef*%
%ADD38R,2.000000X2.400000*%
%TD*%
%TA.AperFunction,SMDPad,CuDef*%
%ADD39RoundRect,0.135000X-0.185000X0.135000X-0.185000X-0.135000X0.185000X-0.135000X0.185000X0.135000X0*%
%TD*%
%TA.AperFunction,SMDPad,CuDef*%
%ADD40RoundRect,0.150000X-0.587500X-0.150000X0.587500X-0.150000X0.587500X0.150000X-0.587500X0.150000X0*%
%TD*%
%TA.AperFunction,ViaPad*%
%ADD41C,0.400000*%
%TD*%
%TA.AperFunction,ViaPad*%
%ADD42C,0.600000*%
%TD*%
%TA.AperFunction,Conductor*%
%ADD43C,0.200000*%
%TD*%
%TA.AperFunction,Conductor*%
%ADD44C,0.150000*%
%TD*%
%TA.AperFunction,Conductor*%
%ADD45C,0.300000*%
%TD*%
%TA.AperFunction,Conductor*%
%ADD46C,0.500000*%
%TD*%
%TA.AperFunction,Conductor*%
%ADD47C,0.600000*%
%TD*%
%TA.AperFunction,Conductor*%
%ADD48C,1.000000*%
%TD*%
%TA.AperFunction,Conductor*%
%ADD49C,0.800000*%
%TD*%
G04 APERTURE END LIST*
D10*
%TO.P,R10,1*%
%TO.N,/GPIO25*%
X119035000Y-52810000D03*
%TO.P,R10,2*%
%TO.N,Net-(D4-Pad2)*%
X120055000Y-52810000D03*
%TD*%
D11*
%TO.P,C7,1*%
%TO.N,+3V3*%
X113805000Y-49505000D03*
%TO.P,C7,2*%
%TO.N,GND*%
X113805000Y-48545000D03*
%TD*%
D12*
%TO.P,C6,1*%
%TO.N,+3V3*%
X108680000Y-51815000D03*
%TO.P,C6,2*%
%TO.N,GND*%
X107720000Y-51815000D03*
%TD*%
D13*
%TO.P,R9,1*%
%TO.N,Net-(C16-Pad1)*%
X112365000Y-60310000D03*
%TO.P,R9,2*%
%TO.N,Net-(R9-Pad2)*%
X112365000Y-59290000D03*
%TD*%
D14*
%TO.P,SW1,*%
%TO.N,*%
X116975000Y-66135000D03*
X108675000Y-66135000D03*
D15*
%TO.P,SW1,1,A*%
%TO.N,Net-(U3-Pad2)*%
X110825000Y-66135000D03*
%TO.P,SW1,2,B*%
%TO.N,Net-(SW1-Pad2)*%
X112825000Y-66135000D03*
%TO.P,SW1,3*%
%TO.N,N/C*%
X114825000Y-66135000D03*
%TD*%
D16*
%TO.P,D3,1,K*%
%TO.N,GND*%
X119070000Y-53855000D03*
%TO.P,D3,2,A*%
%TO.N,Net-(D3-Pad2)*%
X120040000Y-53855000D03*
%TD*%
D13*
%TO.P,R4,1*%
%TO.N,/PI_USB_D-*%
X115160000Y-46895000D03*
%TO.P,R4,2*%
%TO.N,/USB_D-*%
X115160000Y-45875000D03*
%TD*%
D17*
%TO.P,SW3,1,A*%
%TO.N,Net-(SW3-Pad1)*%
X116935000Y-58830000D03*
%TO.P,SW3,2,B*%
%TO.N,GND*%
X116935000Y-63030000D03*
%TD*%
D18*
%TO.P,C13,1*%
%TO.N,Net-(C13-Pad1)*%
X118235000Y-42060000D03*
%TO.P,C13,2*%
%TO.N,GND*%
X119785000Y-42060000D03*
%TD*%
D19*
%TO.P,D2,1,K*%
%TO.N,BUSPWR*%
X119700000Y-38115000D03*
%TO.P,D2,2,A*%
%TO.N,/VBA_DIN*%
X116900000Y-38115000D03*
%TD*%
D20*
%TO.P,D4,1,K*%
%TO.N,GND*%
X121955000Y-52805000D03*
%TO.P,D4,2,A*%
%TO.N,Net-(D4-Pad2)*%
X120985000Y-52805000D03*
%TD*%
D21*
%TO.P,U3,1,IOVDD*%
%TO.N,+3V3*%
X109982500Y-51515000D03*
%TO.P,U3,2,GPIO0*%
%TO.N,Net-(U3-Pad2)*%
X109982500Y-51915000D03*
%TO.P,U3,3,GPIO1*%
%TO.N,unconnected-(U3-Pad3)*%
X109982500Y-52315000D03*
%TO.P,U3,4,GPIO2*%
%TO.N,unconnected-(U3-Pad4)*%
X109982500Y-52715000D03*
%TO.P,U3,5,GPIO3*%
%TO.N,unconnected-(U3-Pad5)*%
X109982500Y-53115000D03*
%TO.P,U3,6,GPIO4*%
%TO.N,unconnected-(U3-Pad6)*%
X109982500Y-53515000D03*
%TO.P,U3,7,GPIO5*%
%TO.N,unconnected-(U3-Pad7)*%
X109982500Y-53915000D03*
%TO.P,U3,8,GPIO6*%
%TO.N,unconnected-(U3-Pad8)*%
X109982500Y-54315000D03*
%TO.P,U3,9,GPIO7*%
%TO.N,unconnected-(U3-Pad9)*%
X109982500Y-54715000D03*
%TO.P,U3,10,IOVDD*%
%TO.N,+3V3*%
X109982500Y-55115000D03*
%TO.P,U3,11,GPIO8*%
%TO.N,unconnected-(U3-Pad11)*%
X109982500Y-55515000D03*
%TO.P,U3,12,GPIO9*%
%TO.N,unconnected-(U3-Pad12)*%
X109982500Y-55915000D03*
%TO.P,U3,13,GPIO10*%
%TO.N,unconnected-(U3-Pad13)*%
X109982500Y-56315000D03*
%TO.P,U3,14,GPIO11*%
%TO.N,unconnected-(U3-Pad14)*%
X109982500Y-56715000D03*
D22*
%TO.P,U3,15,GPIO12*%
%TO.N,unconnected-(U3-Pad15)*%
X110820000Y-57552500D03*
%TO.P,U3,16,GPIO13*%
%TO.N,unconnected-(U3-Pad16)*%
X111220000Y-57552500D03*
%TO.P,U3,17,GPIO14*%
%TO.N,unconnected-(U3-Pad17)*%
X111620000Y-57552500D03*
%TO.P,U3,18,GPIO15*%
%TO.N,unconnected-(U3-Pad18)*%
X112020000Y-57552500D03*
%TO.P,U3,19,TESTEN*%
%TO.N,GND*%
X112420000Y-57552500D03*
%TO.P,U3,20,XIN*%
%TO.N,Net-(C15-Pad1)*%
X112820000Y-57552500D03*
%TO.P,U3,21,XOUT*%
%TO.N,Net-(R9-Pad2)*%
X113220000Y-57552500D03*
%TO.P,U3,22,IOVDD*%
%TO.N,+3V3*%
X113620000Y-57552500D03*
%TO.P,U3,23,DVDD*%
%TO.N,+1V1*%
X114020000Y-57552500D03*
%TO.P,U3,24,SWCLK*%
%TO.N,unconnected-(U3-Pad24)*%
X114420000Y-57552500D03*
%TO.P,U3,25,SWD*%
%TO.N,unconnected-(U3-Pad25)*%
X114820000Y-57552500D03*
%TO.P,U3,26,RUN*%
%TO.N,Net-(SW3-Pad1)*%
X115220000Y-57552500D03*
%TO.P,U3,27,GPIO16*%
%TO.N,unconnected-(U3-Pad27)*%
X115620000Y-57552500D03*
%TO.P,U3,28,GPIO17*%
%TO.N,unconnected-(U3-Pad28)*%
X116020000Y-57552500D03*
D21*
%TO.P,U3,29,GPIO18*%
%TO.N,unconnected-(U3-Pad29)*%
X116857500Y-56715000D03*
%TO.P,U3,30,GPIO19*%
%TO.N,unconnected-(U3-Pad30)*%
X116857500Y-56315000D03*
%TO.P,U3,31,GPIO20*%
%TO.N,unconnected-(U3-Pad31)*%
X116857500Y-55915000D03*
%TO.P,U3,32,GPIO21*%
%TO.N,unconnected-(U3-Pad32)*%
X116857500Y-55515000D03*
%TO.P,U3,33,IOVDD*%
%TO.N,+3V3*%
X116857500Y-55115000D03*
%TO.P,U3,34,GPIO22*%
%TO.N,unconnected-(U3-Pad34)*%
X116857500Y-54715000D03*
%TO.P,U3,35,GPIO23*%
%TO.N,unconnected-(U3-Pad35)*%
X116857500Y-54315000D03*
%TO.P,U3,36,GPIO24*%
%TO.N,/GPIO24*%
X116857500Y-53915000D03*
%TO.P,U3,37,GPIO25*%
%TO.N,/GPIO25*%
X116857500Y-53515000D03*
%TO.P,U3,38,GPIO26_ADC0*%
%TO.N,unconnected-(U3-Pad38)*%
X116857500Y-53115000D03*
%TO.P,U3,39,GPIO27_ADC1*%
%TO.N,unconnected-(U3-Pad39)*%
X116857500Y-52715000D03*
%TO.P,U3,40,GPIO28_ADC2*%
%TO.N,unconnected-(U3-Pad40)*%
X116857500Y-52315000D03*
%TO.P,U3,41,GPIO29_ADC3*%
%TO.N,unconnected-(U3-Pad41)*%
X116857500Y-51915000D03*
%TO.P,U3,42,IOVDD*%
%TO.N,+3V3*%
X116857500Y-51515000D03*
D22*
%TO.P,U3,43,ADC_AVDD*%
X116020000Y-50677500D03*
%TO.P,U3,44,VREG_IN*%
X115620000Y-50677500D03*
%TO.P,U3,45,VREG_VOUT*%
%TO.N,+1V1*%
X115220000Y-50677500D03*
%TO.P,U3,46,USB_DM*%
%TO.N,/PI_USB_D-*%
X114820000Y-50677500D03*
%TO.P,U3,47,USB_DP*%
%TO.N,/PI_USB_D+*%
X114420000Y-50677500D03*
%TO.P,U3,48,USB_VDD*%
%TO.N,+3V3*%
X114020000Y-50677500D03*
%TO.P,U3,49,IOVDD*%
X113620000Y-50677500D03*
%TO.P,U3,50,DVDD*%
%TO.N,+1V1*%
X113220000Y-50677500D03*
%TO.P,U3,51,QSPI_SD3*%
%TO.N,/FLASH_IO3*%
X112820000Y-50677500D03*
%TO.P,U3,52,QSPI_SCLK*%
%TO.N,/FLASH_CLK*%
X112420000Y-50677500D03*
%TO.P,U3,53,QSPI_SD0*%
%TO.N,/FLASH_IO0*%
X112020000Y-50677500D03*
%TO.P,U3,54,QSPI_SD2*%
%TO.N,/FLASH_IO2*%
X111620000Y-50677500D03*
%TO.P,U3,55,QSPI_SD1*%
%TO.N,/FLASH_IO1*%
X111220000Y-50677500D03*
%TO.P,U3,56,QSPI_SS*%
%TO.N,/FLASH_SS*%
X110820000Y-50677500D03*
D23*
%TO.P,U3,57,GND*%
%TO.N,GND*%
X112145000Y-55390000D03*
X114695000Y-54115000D03*
X114695000Y-55390000D03*
X113420000Y-52840000D03*
X114695000Y-52840000D03*
X113420000Y-54115000D03*
X112145000Y-52840000D03*
X113420000Y-55390000D03*
D24*
X113420000Y-54115000D03*
D23*
X112145000Y-54115000D03*
%TD*%
D25*
%TO.P,C4,1*%
%TO.N,+3V3*%
X113350000Y-59305000D03*
%TO.P,C4,2*%
%TO.N,GND*%
X113350000Y-60265000D03*
%TD*%
D26*
%TO.P,J1,*%
%TO.N,*%
X115550000Y-32575000D03*
X111050000Y-32575000D03*
D27*
%TO.P,J1,1,VBUS*%
%TO.N,/VBA_DIN*%
X116800000Y-35185000D03*
D28*
%TO.P,J1,2,D-*%
%TO.N,/USB_D-*%
X114300000Y-35185000D03*
%TO.P,J1,3,D+*%
%TO.N,/USB_D+*%
X112300000Y-35185000D03*
%TO.P,J1,4,GND*%
%TO.N,GND*%
X109800000Y-35185000D03*
D29*
%TO.P,J1,5,Shield*%
X107600000Y-32575000D03*
X119000000Y-32575000D03*
%TD*%
D30*
%TO.P,C2,1*%
%TO.N,+3V3*%
X118075000Y-51780000D03*
%TO.P,C2,2*%
%TO.N,GND*%
X119035000Y-51780000D03*
%TD*%
D31*
%TO.P,U1,1,~{CS}*%
%TO.N,/FLASH_SS*%
X106655000Y-48967500D03*
%TO.P,U1,2,DO(IO1)*%
%TO.N,/FLASH_IO1*%
X107925000Y-48967500D03*
%TO.P,U1,3,IO2*%
%TO.N,/FLASH_IO2*%
X109195000Y-48967500D03*
%TO.P,U1,4,GND*%
%TO.N,GND*%
X110465000Y-48967500D03*
%TO.P,U1,5,DI(IO0)*%
%TO.N,/FLASH_IO0*%
X110465000Y-43642500D03*
%TO.P,U1,6,CLK*%
%TO.N,/FLASH_CLK*%
X109195000Y-43642500D03*
%TO.P,U1,7,IO3*%
%TO.N,/FLASH_IO3*%
X107925000Y-43642500D03*
%TO.P,U1,8,VCC*%
%TO.N,+3V3*%
X106655000Y-43642500D03*
D32*
%TO.P,U1,9*%
%TO.N,GND*%
X108560000Y-46305000D03*
%TD*%
D33*
%TO.P,R8,1*%
%TO.N,BUSPWR*%
X116625000Y-39815000D03*
%TO.P,R8,2*%
%TO.N,3V3_EN*%
X115605000Y-39815000D03*
%TD*%
D11*
%TO.P,C10,1*%
%TO.N,+3V3*%
X117520000Y-49475000D03*
%TO.P,C10,2*%
%TO.N,GND*%
X117520000Y-48515000D03*
%TD*%
%TO.P,C1,1*%
%TO.N,+3V3*%
X116545000Y-49475000D03*
%TO.P,C1,2*%
%TO.N,GND*%
X116545000Y-48515000D03*
%TD*%
D34*
%TO.P,U2,1,IN*%
%TO.N,Net-(C13-Pad1)*%
X118430000Y-44127500D03*
%TO.P,U2,2,GND*%
%TO.N,GND*%
X117480000Y-44127500D03*
%TO.P,U2,3,EN*%
%TO.N,3V3_EN*%
X116530000Y-44127500D03*
%TO.P,U2,4,BP*%
%TO.N,unconnected-(U2-Pad4)*%
X116530000Y-46402500D03*
%TO.P,U2,5,OUT*%
%TO.N,+3V3*%
X118430000Y-46402500D03*
%TD*%
D25*
%TO.P,C9,1*%
%TO.N,+1V1*%
X114350000Y-59305000D03*
%TO.P,C9,2*%
%TO.N,GND*%
X114350000Y-60265000D03*
%TD*%
D33*
%TO.P,R11,1*%
%TO.N,Net-(Q1-Pad3)*%
X121990000Y-53860000D03*
%TO.P,R11,2*%
%TO.N,Net-(D3-Pad2)*%
X120970000Y-53860000D03*
%TD*%
D35*
%TO.P,C14,1*%
%TO.N,+3V3*%
X120030000Y-46065000D03*
%TO.P,C14,2*%
%TO.N,GND*%
X120030000Y-44515000D03*
%TD*%
D13*
%TO.P,FB1,1*%
%TO.N,Net-(C13-Pad1)*%
X116605000Y-41950000D03*
%TO.P,FB1,2*%
%TO.N,Net-(F1-Pad2)*%
X116605000Y-40930000D03*
%TD*%
D33*
%TO.P,R6,1*%
%TO.N,/FLASH_SS*%
X106610000Y-50140000D03*
%TO.P,R6,2*%
%TO.N,+3V3*%
X105590000Y-50140000D03*
%TD*%
D25*
%TO.P,C11,1*%
%TO.N,GND*%
X112795000Y-47465000D03*
%TO.P,C11,2*%
%TO.N,+1V1*%
X112795000Y-48425000D03*
%TD*%
D36*
%TO.P,F1,1*%
%TO.N,BUSPWR*%
X119747500Y-40290000D03*
%TO.P,F1,2*%
%TO.N,Net-(F1-Pad2)*%
X117872500Y-40290000D03*
%TD*%
D11*
%TO.P,C12,1*%
%TO.N,+3V3*%
X105065000Y-42445000D03*
%TO.P,C12,2*%
%TO.N,GND*%
X105065000Y-41485000D03*
%TD*%
D13*
%TO.P,R3,1*%
%TO.N,/PI_USB_D+*%
X114155000Y-46885000D03*
%TO.P,R3,2*%
%TO.N,/USB_D+*%
X114155000Y-45865000D03*
%TD*%
D12*
%TO.P,C5,1*%
%TO.N,+3V3*%
X108705000Y-54830000D03*
%TO.P,C5,2*%
%TO.N,GND*%
X107745000Y-54830000D03*
%TD*%
D37*
%TO.P,SW2,1,A*%
%TO.N,GND*%
X110355000Y-39845000D03*
%TO.P,SW2,2,B*%
%TO.N,Net-(R7-Pad1)*%
X106155000Y-39845000D03*
%TD*%
D10*
%TO.P,R5,1*%
%TO.N,Net-(SW1-Pad2)*%
X107740000Y-55840000D03*
%TO.P,R5,2*%
%TO.N,+3V3*%
X108760000Y-55840000D03*
%TD*%
D30*
%TO.P,C16,1*%
%TO.N,Net-(C16-Pad1)*%
X109930000Y-63000000D03*
%TO.P,C16,2*%
%TO.N,GND*%
X110890000Y-63000000D03*
%TD*%
D38*
%TO.P,Y1,1,1*%
%TO.N,Net-(C16-Pad1)*%
X110080000Y-60585000D03*
%TO.P,Y1,2,2*%
%TO.N,Net-(C15-Pad1)*%
X106380000Y-60585000D03*
%TD*%
D39*
%TO.P,R7,1*%
%TO.N,Net-(R7-Pad1)*%
X105070000Y-39540000D03*
%TO.P,R7,2*%
%TO.N,/FLASH_SS*%
X105070000Y-40560000D03*
%TD*%
D12*
%TO.P,C15,1*%
%TO.N,Net-(C15-Pad1)*%
X106520000Y-63000000D03*
%TO.P,C15,2*%
%TO.N,GND*%
X105560000Y-63000000D03*
%TD*%
D11*
%TO.P,C8,1*%
%TO.N,+1V1*%
X115565000Y-49475000D03*
%TO.P,C8,2*%
%TO.N,GND*%
X115565000Y-48515000D03*
%TD*%
D25*
%TO.P,C3,1*%
%TO.N,+3V3*%
X118085000Y-56805000D03*
%TO.P,C3,2*%
%TO.N,GND*%
X118085000Y-57765000D03*
%TD*%
D40*
%TO.P,Q1,1,G*%
%TO.N,/GPIO24*%
X119602500Y-55185000D03*
%TO.P,Q1,2,S*%
%TO.N,+3V3*%
X119602500Y-57085000D03*
%TO.P,Q1,3,D*%
%TO.N,Net-(Q1-Pad3)*%
X121477500Y-56135000D03*
%TD*%
D41*
%TO.N,+3V3*%
X121105000Y-46610000D03*
%TO.N,GND*%
X120315000Y-43570000D03*
X107000000Y-55130000D03*
X113360000Y-61005000D03*
X104875000Y-62685000D03*
X116585000Y-47655000D03*
X111615000Y-62695000D03*
X110330000Y-37510000D03*
X104315000Y-41575000D03*
X121625000Y-52060000D03*
X111310000Y-58445000D03*
X111615000Y-59785000D03*
X117110000Y-42965000D03*
X106985000Y-52210000D03*
X112800000Y-46685000D03*
X114680000Y-63030000D03*
X114340000Y-61000000D03*
X118385000Y-54460000D03*
X108135000Y-62760000D03*
X109835000Y-48380000D03*
X113730000Y-47730000D03*
X119375000Y-58485000D03*
X119810000Y-43070000D03*
D42*
%TO.N,+1V1*%
X114120000Y-56185000D03*
X112859464Y-49235536D03*
D41*
X114350000Y-58605000D03*
D42*
X114825000Y-51835000D03*
D41*
%TO.N,/FLASH_SS*%
X107150000Y-42585000D03*
X107265000Y-48420000D03*
%TD*%
D43*
%TO.N,+3V3*%
X113620000Y-59035000D02*
X113350000Y-59305000D01*
D44*
X113785000Y-49785000D02*
X113785000Y-49525000D01*
D43*
X109135000Y-55115000D02*
X108990000Y-55115000D01*
X113620000Y-57552500D02*
X113620000Y-59035000D01*
X109135000Y-55340000D02*
X108760000Y-55715000D01*
D44*
X113620000Y-50677500D02*
X113620000Y-49950000D01*
X114005000Y-50035000D02*
X113805000Y-49835000D01*
D43*
X109135000Y-55115000D02*
X109135000Y-55340000D01*
X119280000Y-57085000D02*
X119602500Y-57085000D01*
D44*
X113805000Y-49835000D02*
X113805000Y-49505000D01*
D43*
X108760000Y-55715000D02*
X108760000Y-55840000D01*
D44*
X114020000Y-50677500D02*
X114005000Y-50662500D01*
D43*
X108990000Y-55115000D02*
X108705000Y-54830000D01*
X118085000Y-55881415D02*
X118085000Y-56805000D01*
X116857500Y-55115000D02*
X117318585Y-55115000D01*
D44*
X113785000Y-49525000D02*
X113805000Y-49505000D01*
D43*
X109982500Y-55115000D02*
X109135000Y-55115000D01*
X117318585Y-55115000D02*
X118085000Y-55881415D01*
D44*
X113620000Y-49950000D02*
X113785000Y-49785000D01*
X114005000Y-50662500D02*
X114005000Y-50035000D01*
D43*
X118085000Y-55890000D02*
X119280000Y-57085000D01*
X118085000Y-55881415D02*
X118085000Y-55890000D01*
%TO.N,GND*%
X119445000Y-51780000D02*
X119035000Y-51780000D01*
D44*
X112795000Y-46690000D02*
X112800000Y-46685000D01*
X112795000Y-47465000D02*
X112795000Y-46690000D01*
D43*
X107300000Y-54830000D02*
X107745000Y-54830000D01*
X119810000Y-43070000D02*
X119810000Y-42085000D01*
X107720000Y-51815000D02*
X107380000Y-51815000D01*
D44*
X112420000Y-57978229D02*
X112420000Y-57552500D01*
X113730000Y-47730000D02*
X113805000Y-47805000D01*
D43*
X113350000Y-60265000D02*
X113350000Y-60995000D01*
D44*
X111310000Y-58445000D02*
X111953229Y-58445000D01*
D43*
X107380000Y-51815000D02*
X106985000Y-52210000D01*
X105065000Y-41485000D02*
X104975000Y-41575000D01*
X121625000Y-52060000D02*
X121955000Y-52390000D01*
D44*
X110422500Y-48967500D02*
X109835000Y-48380000D01*
D43*
X121625000Y-52060000D02*
X119725000Y-52060000D01*
X120030000Y-43855000D02*
X120315000Y-43570000D01*
D44*
X116935000Y-63030000D02*
X114680000Y-63030000D01*
D45*
X107600000Y-33072500D02*
X107600000Y-32575000D01*
D44*
X116585000Y-48475000D02*
X116545000Y-48515000D01*
D43*
X117480000Y-43335000D02*
X117110000Y-42965000D01*
X117480000Y-44127500D02*
X117480000Y-43335000D01*
X118655000Y-57765000D02*
X119375000Y-58485000D01*
D44*
X111953229Y-58445000D02*
X112420000Y-57978229D01*
X110465000Y-48967500D02*
X110422500Y-48967500D01*
X110465000Y-48967500D02*
X110465000Y-48210000D01*
D43*
X118385000Y-54460000D02*
X118465000Y-54460000D01*
X120030000Y-44515000D02*
X120030000Y-43855000D01*
X107000000Y-55130000D02*
X107300000Y-54830000D01*
D44*
X115565000Y-48515000D02*
X117520000Y-48515000D01*
X113805000Y-47805000D02*
X113805000Y-48545000D01*
D43*
X104975000Y-41575000D02*
X104315000Y-41575000D01*
D45*
X109712500Y-35185000D02*
X107600000Y-33072500D01*
D43*
X113350000Y-60995000D02*
X113360000Y-61005000D01*
D44*
X110465000Y-48210000D02*
X108560000Y-46305000D01*
D43*
X118085000Y-57765000D02*
X118655000Y-57765000D01*
D44*
X116585000Y-47655000D02*
X116585000Y-48475000D01*
D43*
X114350000Y-60265000D02*
X114350000Y-60990000D01*
D44*
X110355000Y-37535000D02*
X110355000Y-39845000D01*
X110330000Y-37510000D02*
X110355000Y-37535000D01*
D43*
X119725000Y-52060000D02*
X119445000Y-51780000D01*
X118465000Y-54460000D02*
X119070000Y-53855000D01*
X114350000Y-60990000D02*
X114340000Y-61000000D01*
X119810000Y-42085000D02*
X119785000Y-42060000D01*
X121955000Y-52390000D02*
X121955000Y-52805000D01*
%TO.N,+1V1*%
X115220000Y-50677500D02*
X115220000Y-49820000D01*
X114350000Y-58605000D02*
X114350000Y-59305000D01*
X114350000Y-59305000D02*
X114350000Y-58660000D01*
X112860000Y-49070000D02*
X112860000Y-48490000D01*
X112860000Y-49070000D02*
X112860000Y-49235000D01*
D44*
X112860000Y-49235000D02*
X112859464Y-49235536D01*
D43*
X114020000Y-58330000D02*
X114020000Y-57552500D01*
X114825000Y-51835000D02*
X115220000Y-51440000D01*
X114350000Y-58660000D02*
X114020000Y-58330000D01*
X113220000Y-49596072D02*
X113220000Y-50677500D01*
X112860000Y-48490000D02*
X112795000Y-48425000D01*
X115220000Y-51440000D02*
X115220000Y-50677500D01*
X112859464Y-49235536D02*
X113220000Y-49596072D01*
X115220000Y-49820000D02*
X115565000Y-49475000D01*
D46*
%TO.N,Net-(C13-Pad1)*%
X116605000Y-41950000D02*
X118125000Y-41950000D01*
X118125000Y-41950000D02*
X118235000Y-42060000D01*
D47*
X118430000Y-42255000D02*
X118235000Y-42060000D01*
X118430000Y-44127500D02*
X118430000Y-42255000D01*
D44*
%TO.N,Net-(C15-Pad1)*%
X106380000Y-62860000D02*
X106520000Y-63000000D01*
X112820000Y-58001815D02*
X111896815Y-58925000D01*
X108040000Y-58925000D02*
X106380000Y-60585000D01*
X112820000Y-57552500D02*
X112820000Y-58001815D01*
X111896815Y-58925000D02*
X108040000Y-58925000D01*
X106380000Y-60585000D02*
X106380000Y-62860000D01*
%TO.N,Net-(C16-Pad1)*%
X110080000Y-60585000D02*
X110080000Y-62850000D01*
X112090000Y-60585000D02*
X110080000Y-60585000D01*
X112365000Y-60310000D02*
X112090000Y-60585000D01*
X110080000Y-62850000D02*
X109930000Y-63000000D01*
D45*
%TO.N,BUSPWR*%
X119700000Y-38115000D02*
X118825480Y-38989520D01*
D48*
X119752500Y-38167500D02*
X119752500Y-40220000D01*
D45*
X117450480Y-38989520D02*
X116625000Y-39815000D01*
X118825480Y-38989520D02*
X117450480Y-38989520D01*
D48*
X119700000Y-38115000D02*
X119752500Y-38167500D01*
D43*
%TO.N,Net-(D3-Pad2)*%
X120970000Y-53860000D02*
X120045000Y-53860000D01*
X120045000Y-53860000D02*
X120040000Y-53855000D01*
%TO.N,Net-(D4-Pad2)*%
X120055000Y-52810000D02*
X120980000Y-52810000D01*
X120980000Y-52810000D02*
X120985000Y-52805000D01*
D46*
%TO.N,Net-(F1-Pad2)*%
X117872500Y-40290000D02*
X117245000Y-40290000D01*
X117245000Y-40290000D02*
X116605000Y-40930000D01*
D49*
%TO.N,/USB_D-*%
X115127500Y-42770748D02*
X115127500Y-45842500D01*
X113775000Y-41418248D02*
X115127500Y-42770748D01*
X113775000Y-35710000D02*
X113775000Y-41418248D01*
X114300000Y-35185000D02*
X113775000Y-35710000D01*
X115127500Y-45842500D02*
X115160000Y-45875000D01*
%TO.N,/USB_D+*%
X114177500Y-45842500D02*
X114155000Y-45865000D01*
X112825000Y-35710000D02*
X112825000Y-41811752D01*
X112300000Y-35185000D02*
X112825000Y-35710000D01*
X112825000Y-41811752D02*
X114177500Y-43164252D01*
X114177500Y-43164252D02*
X114177500Y-45842500D01*
D44*
%TO.N,Net-(U3-Pad2)*%
X104805580Y-63899520D02*
X109635000Y-63899520D01*
X109635000Y-63899520D02*
X110825000Y-65089520D01*
X104025481Y-63119421D02*
X104805580Y-63899520D01*
X109555000Y-51915000D02*
X104025481Y-57444519D01*
X110825000Y-65089520D02*
X110825000Y-66135000D01*
X109982500Y-51915000D02*
X109555000Y-51915000D01*
X104025481Y-57444519D02*
X104025481Y-63119421D01*
%TO.N,Net-(R7-Pad1)*%
X105375000Y-39845000D02*
X106155000Y-39845000D01*
X105070000Y-39540000D02*
X105375000Y-39845000D01*
D45*
%TO.N,3V3_EN*%
X115960000Y-42305000D02*
X116530000Y-42875000D01*
X115960000Y-40170000D02*
X115960000Y-42305000D01*
X116530000Y-42875000D02*
X116530000Y-44127500D01*
X115605000Y-39815000D02*
X115960000Y-40170000D01*
D44*
%TO.N,Net-(R9-Pad2)*%
X113220000Y-58460000D02*
X112390000Y-59290000D01*
X113220000Y-57552500D02*
X113220000Y-58460000D01*
X112390000Y-59290000D02*
X112365000Y-59290000D01*
D43*
%TO.N,Net-(SW1-Pad2)*%
X106090000Y-55840000D02*
X104350000Y-57580000D01*
X104940000Y-63575000D02*
X111275000Y-63575000D01*
X112825000Y-65125000D02*
X112825000Y-66135000D01*
X107740000Y-55840000D02*
X106090000Y-55840000D01*
X104350000Y-57580000D02*
X104350000Y-62985000D01*
X104350000Y-62985000D02*
X104940000Y-63575000D01*
X111275000Y-63575000D02*
X112825000Y-65125000D01*
D44*
%TO.N,Net-(SW3-Pad1)*%
X116071771Y-58830000D02*
X116935000Y-58830000D01*
X115220000Y-57978229D02*
X116071771Y-58830000D01*
X115220000Y-57552500D02*
X115220000Y-57978229D01*
D43*
%TO.N,/GPIO24*%
X117790000Y-54155000D02*
X117790000Y-54775000D01*
X117790000Y-54775000D02*
X118200000Y-55185000D01*
X118200000Y-55185000D02*
X119602500Y-55185000D01*
X116857500Y-53915000D02*
X117550000Y-53915000D01*
X117550000Y-53915000D02*
X117790000Y-54155000D01*
D44*
%TO.N,/FLASH_SS*%
X110820000Y-50400000D02*
X110619040Y-50199040D01*
X110619040Y-50199040D02*
X108732954Y-50199040D01*
X106485000Y-41145000D02*
X105655000Y-41145000D01*
X106610000Y-49012500D02*
X106655000Y-48967500D01*
X107150000Y-42585000D02*
X107150000Y-41810000D01*
X106717500Y-48967500D02*
X106655000Y-48967500D01*
X105655000Y-41145000D02*
X105070000Y-40560000D01*
X106610000Y-50140000D02*
X106610000Y-49012500D01*
X108732954Y-50199040D02*
X108123914Y-49590000D01*
X107265000Y-48420000D02*
X106717500Y-48967500D01*
X107150000Y-41810000D02*
X106485000Y-41145000D01*
X106817500Y-48967500D02*
X106655000Y-48967500D01*
X108123914Y-49590000D02*
X107440000Y-49590000D01*
X110820000Y-50677500D02*
X110820000Y-50400000D01*
X107440000Y-49590000D02*
X106817500Y-48967500D01*
D43*
%TO.N,/GPIO25*%
X117318585Y-53515000D02*
X118013585Y-52820000D01*
X119025000Y-52820000D02*
X119035000Y-52810000D01*
X116857500Y-53515000D02*
X117318585Y-53515000D01*
X118013585Y-52820000D02*
X119025000Y-52820000D01*
D44*
%TO.N,/FLASH_IO1*%
X111220000Y-50033586D02*
X111085934Y-49899520D01*
X111085934Y-49899520D02*
X108857020Y-49899520D01*
X108857020Y-49899520D02*
X107925000Y-48967500D01*
X111220000Y-50677500D02*
X111220000Y-50033586D01*
%TO.N,/FLASH_IO2*%
X111620000Y-50677500D02*
X111620000Y-50010000D01*
X111620000Y-50010000D02*
X111210000Y-49600000D01*
X109827500Y-49600000D02*
X109195000Y-48967500D01*
X111210000Y-49600000D02*
X109827500Y-49600000D01*
%TO.N,/FLASH_IO0*%
X110939520Y-44117020D02*
X110465000Y-43642500D01*
X112020000Y-49985000D02*
X110939520Y-48904520D01*
X112020000Y-50677500D02*
X112020000Y-49985000D01*
X110939520Y-48904520D02*
X110939520Y-44117020D01*
%TO.N,/FLASH_CLK*%
X111615000Y-45820000D02*
X111440000Y-45820000D01*
X111915000Y-48670000D02*
X111915000Y-48370000D01*
X111265000Y-46845000D02*
X111265000Y-46595000D01*
X111615000Y-45045000D02*
X111615000Y-44175024D01*
X111765000Y-45820000D02*
X111615000Y-45820000D01*
X111615000Y-43456920D02*
X110813080Y-42655000D01*
X111440000Y-47620000D02*
X111615000Y-47620000D01*
X111615000Y-44175024D02*
X111615000Y-43456920D01*
X111765000Y-47020000D02*
X111615000Y-47020000D01*
X111615000Y-48220000D02*
X111440000Y-48220000D01*
X112420000Y-49961414D02*
X111673578Y-49214992D01*
X111615000Y-47620000D02*
X111765000Y-47620000D01*
X111615000Y-46420000D02*
X111765000Y-46420000D01*
X111615000Y-47020000D02*
X111440000Y-47020000D01*
X111915000Y-47470000D02*
X111915000Y-47170000D01*
X111915000Y-46270000D02*
X111915000Y-45970000D01*
X111765000Y-48220000D02*
X111615000Y-48220000D01*
X111615000Y-49073571D02*
X111615000Y-48970000D01*
X111440000Y-46420000D02*
X111615000Y-46420000D01*
X111265000Y-45645000D02*
X111265000Y-45395000D01*
X109630000Y-42655000D02*
X109195000Y-43090000D01*
X110813080Y-42655000D02*
X109630000Y-42655000D01*
X112420000Y-50677500D02*
X112420000Y-49961414D01*
X111265000Y-48045000D02*
X111265000Y-47795000D01*
X109195000Y-43090000D02*
X109195000Y-43642500D01*
X111915000Y-46270000D02*
G75*
G02*
X111765000Y-46420000I-150000J0D01*
G01*
X111615000Y-45045000D02*
G75*
G02*
X111440000Y-45220000I-174999J-1D01*
G01*
X111265000Y-45645000D02*
G75*
G03*
X111440000Y-45820000I174999J-1D01*
G01*
X111265000Y-46845000D02*
G75*
G03*
X111440000Y-47020000I174999J-1D01*
G01*
X111673578Y-49214992D02*
G75*
G02*
X111615000Y-49073571I141425J141422D01*
G01*
X111265000Y-48045000D02*
G75*
G03*
X111440000Y-48220000I174999J-1D01*
G01*
X111440000Y-47620000D02*
G75*
G03*
X111265000Y-47795000I-1J-174999D01*
G01*
X111765000Y-45820000D02*
G75*
G02*
X111915000Y-45970000I0J-150000D01*
G01*
X111765000Y-48220000D02*
G75*
G02*
X111915000Y-48370000I0J-150000D01*
G01*
X111915000Y-47470000D02*
G75*
G02*
X111765000Y-47620000I-150000J0D01*
G01*
X111765000Y-48820000D02*
G75*
G03*
X111615000Y-48970000I0J-150000D01*
G01*
X111765000Y-47020000D02*
G75*
G02*
X111915000Y-47170000I0J-150000D01*
G01*
X111915000Y-48670000D02*
G75*
G02*
X111765000Y-48820000I-150000J0D01*
G01*
X111440000Y-45220000D02*
G75*
G03*
X111265000Y-45395000I-1J-174999D01*
G01*
X111440000Y-46420000D02*
G75*
G03*
X111265000Y-46595000I-1J-174999D01*
G01*
%TO.N,/FLASH_IO3*%
X112820000Y-50677500D02*
X112820000Y-49937828D01*
X112225000Y-49342828D02*
X112225000Y-43643334D01*
X110926666Y-42345000D02*
X109222500Y-42345000D01*
X112225000Y-43643334D02*
X110926666Y-42345000D01*
X109222500Y-42345000D02*
X107925000Y-43642500D01*
X112820000Y-49937828D02*
X112225000Y-49342828D01*
D43*
%TO.N,Net-(Q1-Pad3)*%
X121480000Y-54370000D02*
X121990000Y-53860000D01*
X121480000Y-56132500D02*
X121480000Y-54370000D01*
X121477500Y-56135000D02*
X121480000Y-56132500D01*
D48*
%TO.N,/VBA_DIN*%
X116900000Y-35285000D02*
X116900000Y-38115000D01*
X116800000Y-35185000D02*
X116900000Y-35285000D01*
D44*
%TO.N,/PI_USB_D+*%
X114519999Y-50151772D02*
X114495480Y-50176291D01*
X114512499Y-48324133D02*
X114519999Y-48331633D01*
X114519999Y-48331633D02*
X114519999Y-50151772D01*
X114495480Y-50602020D02*
X114420000Y-50677500D01*
X114512499Y-47242499D02*
X114512499Y-48324133D01*
X114155000Y-46885000D02*
X114512499Y-47242499D01*
X114495480Y-50176291D02*
X114495480Y-50602020D01*
%TO.N,/PI_USB_D-*%
X114812501Y-47242499D02*
X115160000Y-46895000D01*
X114820000Y-48207366D02*
X114812501Y-48199867D01*
X114812501Y-48199867D02*
X114812501Y-47242499D01*
X114820000Y-50677500D02*
X114820000Y-48207366D01*
%TD*%
%TA.AperFunction,Conductor*%
%TO.N,+3V3*%
G36*
X110569500Y-51084748D02*
G01*
X110581133Y-51143231D01*
X110625448Y-51209552D01*
X110631509Y-51213602D01*
X110685099Y-51249410D01*
X110691769Y-51253867D01*
X110736295Y-51262724D01*
X110746682Y-51264790D01*
X110746683Y-51264790D01*
X110750252Y-51265500D01*
X110889748Y-51265500D01*
X110893317Y-51264790D01*
X110893318Y-51264790D01*
X110903705Y-51262724D01*
X110948231Y-51253867D01*
X110954902Y-51249410D01*
X110978887Y-51233383D01*
X111028056Y-51221351D01*
X111061113Y-51233383D01*
X111085099Y-51249410D01*
X111091769Y-51253867D01*
X111136295Y-51262724D01*
X111146682Y-51264790D01*
X111146683Y-51264790D01*
X111150252Y-51265500D01*
X111289748Y-51265500D01*
X111293317Y-51264790D01*
X111293318Y-51264790D01*
X111303705Y-51262724D01*
X111348231Y-51253867D01*
X111354902Y-51249410D01*
X111378887Y-51233383D01*
X111428056Y-51221351D01*
X111461113Y-51233383D01*
X111485099Y-51249410D01*
X111491769Y-51253867D01*
X111536295Y-51262724D01*
X111546682Y-51264790D01*
X111546683Y-51264790D01*
X111550252Y-51265500D01*
X111689748Y-51265500D01*
X111693317Y-51264790D01*
X111693318Y-51264790D01*
X111703705Y-51262724D01*
X111748231Y-51253867D01*
X111754902Y-51249410D01*
X111778887Y-51233383D01*
X111828056Y-51221351D01*
X111861113Y-51233383D01*
X111885099Y-51249410D01*
X111891769Y-51253867D01*
X111936295Y-51262724D01*
X111946682Y-51264790D01*
X111946683Y-51264790D01*
X111950252Y-51265500D01*
X112089748Y-51265500D01*
X112093317Y-51264790D01*
X112093318Y-51264790D01*
X112103705Y-51262724D01*
X112148231Y-51253867D01*
X112154902Y-51249410D01*
X112178887Y-51233383D01*
X112228056Y-51221351D01*
X112261113Y-51233383D01*
X112285099Y-51249410D01*
X112291769Y-51253867D01*
X112336295Y-51262724D01*
X112346682Y-51264790D01*
X112346683Y-51264790D01*
X112350252Y-51265500D01*
X112489748Y-51265500D01*
X112493317Y-51264790D01*
X112493318Y-51264790D01*
X112503705Y-51262724D01*
X112548231Y-51253867D01*
X112554902Y-51249410D01*
X112578887Y-51233383D01*
X112628056Y-51221351D01*
X112661113Y-51233383D01*
X112685099Y-51249410D01*
X112691769Y-51253867D01*
X112736295Y-51262724D01*
X112746682Y-51264790D01*
X112746683Y-51264790D01*
X112750252Y-51265500D01*
X112889748Y-51265500D01*
X112893317Y-51264790D01*
X112893318Y-51264790D01*
X112903705Y-51262724D01*
X112948231Y-51253867D01*
X112954902Y-51249410D01*
X112978887Y-51233383D01*
X113028056Y-51221351D01*
X113061113Y-51233383D01*
X113085099Y-51249410D01*
X113091769Y-51253867D01*
X113136295Y-51262724D01*
X113146682Y-51264790D01*
X113146683Y-51264790D01*
X113150252Y-51265500D01*
X113289748Y-51265500D01*
X113293317Y-51264790D01*
X113293318Y-51264790D01*
X113303705Y-51262724D01*
X113348231Y-51253867D01*
X113354902Y-51249410D01*
X113408491Y-51213602D01*
X113414552Y-51209552D01*
X113458867Y-51143231D01*
X113470500Y-51084748D01*
X113470500Y-50629000D01*
X113487813Y-50581434D01*
X113531650Y-50556124D01*
X113544500Y-50555000D01*
X114095500Y-50555000D01*
X114143066Y-50572313D01*
X114168376Y-50616150D01*
X114169500Y-50629000D01*
X114169500Y-51084748D01*
X114176977Y-51122336D01*
X114169277Y-51172364D01*
X114150526Y-51194194D01*
X114150739Y-51194457D01*
X114138537Y-51204338D01*
X114135368Y-51209218D01*
X114135366Y-51209220D01*
X114124403Y-51226102D01*
X114096248Y-51269457D01*
X114077341Y-51327648D01*
X114070000Y-51374000D01*
X114070000Y-51741000D01*
X114052687Y-51788566D01*
X114008850Y-51813876D01*
X113996000Y-51815000D01*
X111344000Y-51815000D01*
X111342552Y-51815114D01*
X111342550Y-51815114D01*
X111321984Y-51816732D01*
X111321980Y-51816732D01*
X111320537Y-51816846D01*
X111319106Y-51817073D01*
X111319103Y-51817073D01*
X111294254Y-51821008D01*
X111294251Y-51821009D01*
X111289944Y-51821691D01*
X111257591Y-51835092D01*
X111229270Y-51846823D01*
X111229268Y-51846824D01*
X111225239Y-51848493D01*
X111221711Y-51851057D01*
X111221708Y-51851058D01*
X111204545Y-51863528D01*
X111175739Y-51884457D01*
X111163537Y-51894338D01*
X111160368Y-51899218D01*
X111160366Y-51899220D01*
X111140754Y-51929421D01*
X111121248Y-51959457D01*
X111102341Y-52017648D01*
X111095000Y-52064000D01*
X111095000Y-56246000D01*
X111095114Y-56247448D01*
X111095114Y-56247450D01*
X111095228Y-56248892D01*
X111096846Y-56269463D01*
X111097073Y-56270894D01*
X111097073Y-56270897D01*
X111100909Y-56295116D01*
X111101691Y-56300056D01*
X111103361Y-56304087D01*
X111122604Y-56350543D01*
X111128493Y-56364761D01*
X111164457Y-56414261D01*
X111165052Y-56414995D01*
X111165056Y-56415001D01*
X111168558Y-56419325D01*
X111174338Y-56426463D01*
X111179218Y-56429632D01*
X111179220Y-56429634D01*
X111200158Y-56443231D01*
X111239457Y-56468752D01*
X111244069Y-56470250D01*
X111244070Y-56470251D01*
X111255261Y-56473887D01*
X111297648Y-56487659D01*
X111330911Y-56492927D01*
X111341126Y-56494545D01*
X111341128Y-56494545D01*
X111344000Y-56495000D01*
X113580152Y-56495000D01*
X113627718Y-56512313D01*
X113648519Y-56540682D01*
X113654911Y-56556113D01*
X113658493Y-56564761D01*
X113694457Y-56614261D01*
X113695052Y-56614995D01*
X113695056Y-56615001D01*
X113698558Y-56619325D01*
X113704338Y-56626463D01*
X113709218Y-56629632D01*
X113709220Y-56629634D01*
X113727773Y-56641682D01*
X113769457Y-56668752D01*
X113774069Y-56670250D01*
X113774070Y-56670251D01*
X113824509Y-56686639D01*
X113827648Y-56687659D01*
X113860911Y-56692927D01*
X113871126Y-56694545D01*
X113871128Y-56694545D01*
X113874000Y-56695000D01*
X114371000Y-56695000D01*
X114372448Y-56694886D01*
X114372450Y-56694886D01*
X114393016Y-56693268D01*
X114393020Y-56693268D01*
X114394463Y-56693154D01*
X114395894Y-56692927D01*
X114395897Y-56692927D01*
X114420746Y-56688992D01*
X114420749Y-56688991D01*
X114425056Y-56688309D01*
X114457408Y-56674908D01*
X114485730Y-56663177D01*
X114485732Y-56663176D01*
X114489761Y-56661507D01*
X114493289Y-56658943D01*
X114493292Y-56658942D01*
X114512134Y-56645252D01*
X114539261Y-56625543D01*
X114540001Y-56624944D01*
X114546940Y-56619325D01*
X114546941Y-56619324D01*
X114551463Y-56615662D01*
X114554632Y-56610782D01*
X114554634Y-56610780D01*
X114574246Y-56580579D01*
X114593752Y-56550543D01*
X114595251Y-56545929D01*
X114597338Y-56541554D01*
X114598375Y-56542048D01*
X114626350Y-56506244D01*
X114665563Y-56495000D01*
X114906000Y-56495000D01*
X114907448Y-56494886D01*
X114907450Y-56494886D01*
X114928016Y-56493268D01*
X114928020Y-56493268D01*
X114929463Y-56493154D01*
X114930894Y-56492927D01*
X114930897Y-56492927D01*
X114955746Y-56488992D01*
X114955749Y-56488991D01*
X114960056Y-56488309D01*
X114994873Y-56473887D01*
X115020730Y-56463177D01*
X115020732Y-56463176D01*
X115024761Y-56461507D01*
X115028289Y-56458943D01*
X115028292Y-56458942D01*
X115059758Y-56436080D01*
X115074261Y-56425543D01*
X115075001Y-56424944D01*
X115081940Y-56419325D01*
X115081941Y-56419324D01*
X115086463Y-56415662D01*
X115089632Y-56410782D01*
X115089634Y-56410780D01*
X115109246Y-56380579D01*
X115128752Y-56350543D01*
X115147659Y-56292352D01*
X115155000Y-56246000D01*
X115155000Y-55964500D01*
X115153154Y-55941037D01*
X115148309Y-55910444D01*
X115121507Y-55845739D01*
X115118560Y-55841682D01*
X115114987Y-55836765D01*
X115101034Y-55788107D01*
X115117210Y-55752581D01*
X115114518Y-55750738D01*
X115118378Y-55745101D01*
X115123205Y-55740265D01*
X115167565Y-55639923D01*
X115170500Y-55614750D01*
X115170500Y-52719000D01*
X115187813Y-52671434D01*
X115231650Y-52646124D01*
X115244500Y-52645000D01*
X115321000Y-52645000D01*
X115322448Y-52644886D01*
X115322450Y-52644886D01*
X115343016Y-52643268D01*
X115343020Y-52643268D01*
X115344463Y-52643154D01*
X115345894Y-52642927D01*
X115345897Y-52642927D01*
X115370746Y-52638992D01*
X115370749Y-52638991D01*
X115375056Y-52638309D01*
X115407408Y-52624908D01*
X115435730Y-52613177D01*
X115435732Y-52613176D01*
X115439761Y-52611507D01*
X115443289Y-52608943D01*
X115443292Y-52608942D01*
X115463967Y-52593920D01*
X115489261Y-52575543D01*
X115501463Y-52565662D01*
X115504632Y-52560782D01*
X115504634Y-52560780D01*
X115541111Y-52504609D01*
X115543752Y-52500543D01*
X115560404Y-52449294D01*
X115561761Y-52445116D01*
X115561761Y-52445115D01*
X115562659Y-52442352D01*
X115570000Y-52396000D01*
X115570000Y-51405970D01*
X115568780Y-51386876D01*
X115565572Y-51361879D01*
X115543125Y-51300102D01*
X115510138Y-51248571D01*
X115500992Y-51235808D01*
X115496301Y-51232352D01*
X115492212Y-51228210D01*
X115494348Y-51226102D01*
X115472587Y-51193401D01*
X115470500Y-51175948D01*
X115470500Y-50629000D01*
X115487813Y-50581434D01*
X115531650Y-50556124D01*
X115544500Y-50555000D01*
X116990000Y-50555000D01*
X116988437Y-51664500D01*
X116450252Y-51664500D01*
X116446683Y-51665210D01*
X116446682Y-51665210D01*
X116436295Y-51667276D01*
X116391769Y-51676133D01*
X116385707Y-51680184D01*
X116385706Y-51680184D01*
X116333428Y-51715116D01*
X116325448Y-51720448D01*
X116281133Y-51786769D01*
X116269500Y-51845252D01*
X116269500Y-51984748D01*
X116281133Y-52043231D01*
X116285184Y-52049293D01*
X116285184Y-52049294D01*
X116301617Y-52073887D01*
X116313649Y-52123056D01*
X116301617Y-52156113D01*
X116281133Y-52186769D01*
X116269500Y-52245252D01*
X116269500Y-52384748D01*
X116270210Y-52388317D01*
X116270210Y-52388318D01*
X116271738Y-52396000D01*
X116281133Y-52443231D01*
X116285184Y-52449293D01*
X116285184Y-52449294D01*
X116301617Y-52473887D01*
X116313649Y-52523056D01*
X116301617Y-52556113D01*
X116281133Y-52586769D01*
X116269500Y-52645252D01*
X116269500Y-52784748D01*
X116281133Y-52843231D01*
X116285184Y-52849293D01*
X116285184Y-52849294D01*
X116301617Y-52873887D01*
X116313649Y-52923056D01*
X116301617Y-52956113D01*
X116281133Y-52986769D01*
X116269500Y-53045252D01*
X116269500Y-53184748D01*
X116281133Y-53243231D01*
X116285184Y-53249293D01*
X116285184Y-53249294D01*
X116301617Y-53273887D01*
X116313649Y-53323056D01*
X116301617Y-53356113D01*
X116281133Y-53386769D01*
X116269500Y-53445252D01*
X116269500Y-53584748D01*
X116281133Y-53643231D01*
X116285184Y-53649293D01*
X116285184Y-53649294D01*
X116301617Y-53673887D01*
X116313649Y-53723056D01*
X116301617Y-53756113D01*
X116281133Y-53786769D01*
X116269500Y-53845252D01*
X116269500Y-53984748D01*
X116281133Y-54043231D01*
X116285184Y-54049293D01*
X116285184Y-54049294D01*
X116301617Y-54073887D01*
X116313649Y-54123056D01*
X116301617Y-54156113D01*
X116281133Y-54186769D01*
X116269500Y-54245252D01*
X116269500Y-54384748D01*
X116281133Y-54443231D01*
X116285184Y-54449293D01*
X116285184Y-54449294D01*
X116301617Y-54473887D01*
X116313649Y-54523056D01*
X116301617Y-54556113D01*
X116281133Y-54586769D01*
X116269500Y-54645252D01*
X116269500Y-54784748D01*
X116281133Y-54843231D01*
X116325448Y-54909552D01*
X116391769Y-54953867D01*
X116436295Y-54962724D01*
X116446682Y-54964790D01*
X116446683Y-54964790D01*
X116450252Y-54965500D01*
X116909684Y-54965500D01*
X116957250Y-54982813D01*
X116982560Y-55026650D01*
X116983683Y-55039598D01*
X116983471Y-55190500D01*
X116983471Y-55190604D01*
X116966091Y-55238146D01*
X116922218Y-55263394D01*
X116909471Y-55264500D01*
X116450252Y-55264500D01*
X116446683Y-55265210D01*
X116446682Y-55265210D01*
X116436295Y-55267276D01*
X116391769Y-55276133D01*
X116325448Y-55320448D01*
X116281133Y-55386769D01*
X116269500Y-55445252D01*
X116269500Y-55584748D01*
X116281133Y-55643231D01*
X116285184Y-55649293D01*
X116285184Y-55649294D01*
X116301617Y-55673887D01*
X116313649Y-55723056D01*
X116301617Y-55756113D01*
X116281133Y-55786769D01*
X116269500Y-55845252D01*
X116269500Y-55984748D01*
X116281133Y-56043231D01*
X116285184Y-56049293D01*
X116285184Y-56049294D01*
X116301617Y-56073887D01*
X116313649Y-56123056D01*
X116301617Y-56156113D01*
X116281133Y-56186769D01*
X116269500Y-56245252D01*
X116269500Y-56384748D01*
X116281133Y-56443231D01*
X116285184Y-56449293D01*
X116285184Y-56449294D01*
X116301617Y-56473887D01*
X116313649Y-56523056D01*
X116301617Y-56556113D01*
X116295839Y-56564761D01*
X116281133Y-56586769D01*
X116269500Y-56645252D01*
X116269500Y-56784748D01*
X116281133Y-56843231D01*
X116325448Y-56909552D01*
X116391769Y-56953867D01*
X116436295Y-56962724D01*
X116446682Y-56964790D01*
X116446683Y-56964790D01*
X116450252Y-56965500D01*
X116906867Y-56965500D01*
X116954433Y-56982813D01*
X116979743Y-57026650D01*
X116980867Y-57039604D01*
X116980104Y-57581156D01*
X116962724Y-57628698D01*
X116918851Y-57653946D01*
X116906156Y-57655052D01*
X116818917Y-57655113D01*
X116344552Y-57655447D01*
X116296974Y-57638168D01*
X116271633Y-57594348D01*
X116270500Y-57581447D01*
X116270500Y-57145252D01*
X116258867Y-57086769D01*
X116214552Y-57020448D01*
X116178887Y-56996617D01*
X116154294Y-56980184D01*
X116154293Y-56980184D01*
X116148231Y-56976133D01*
X116100426Y-56966624D01*
X116093318Y-56965210D01*
X116093317Y-56965210D01*
X116089748Y-56964500D01*
X115950252Y-56964500D01*
X115946683Y-56965210D01*
X115946682Y-56965210D01*
X115939574Y-56966624D01*
X115891769Y-56976133D01*
X115885707Y-56980184D01*
X115885706Y-56980184D01*
X115861113Y-56996617D01*
X115811944Y-57008649D01*
X115778887Y-56996617D01*
X115754294Y-56980184D01*
X115754293Y-56980184D01*
X115748231Y-56976133D01*
X115700426Y-56966624D01*
X115693318Y-56965210D01*
X115693317Y-56965210D01*
X115689748Y-56964500D01*
X115550252Y-56964500D01*
X115546683Y-56965210D01*
X115546682Y-56965210D01*
X115539574Y-56966624D01*
X115491769Y-56976133D01*
X115485707Y-56980184D01*
X115485706Y-56980184D01*
X115461113Y-56996617D01*
X115411944Y-57008649D01*
X115378887Y-56996617D01*
X115354294Y-56980184D01*
X115354293Y-56980184D01*
X115348231Y-56976133D01*
X115300426Y-56966624D01*
X115293318Y-56965210D01*
X115293317Y-56965210D01*
X115289748Y-56964500D01*
X115150252Y-56964500D01*
X115146683Y-56965210D01*
X115146682Y-56965210D01*
X115139574Y-56966624D01*
X115091769Y-56976133D01*
X115085707Y-56980184D01*
X115085706Y-56980184D01*
X115061113Y-56996617D01*
X115011944Y-57008649D01*
X114978887Y-56996617D01*
X114954294Y-56980184D01*
X114954293Y-56980184D01*
X114948231Y-56976133D01*
X114900426Y-56966624D01*
X114893318Y-56965210D01*
X114893317Y-56965210D01*
X114889748Y-56964500D01*
X114750252Y-56964500D01*
X114746683Y-56965210D01*
X114746682Y-56965210D01*
X114739574Y-56966624D01*
X114691769Y-56976133D01*
X114685707Y-56980184D01*
X114685706Y-56980184D01*
X114661113Y-56996617D01*
X114611944Y-57008649D01*
X114578887Y-56996617D01*
X114554294Y-56980184D01*
X114554293Y-56980184D01*
X114548231Y-56976133D01*
X114500426Y-56966624D01*
X114493318Y-56965210D01*
X114493317Y-56965210D01*
X114489748Y-56964500D01*
X114350252Y-56964500D01*
X114346683Y-56965210D01*
X114346682Y-56965210D01*
X114339574Y-56966624D01*
X114291769Y-56976133D01*
X114285707Y-56980184D01*
X114285706Y-56980184D01*
X114261113Y-56996617D01*
X114211944Y-57008649D01*
X114178887Y-56996617D01*
X114154294Y-56980184D01*
X114154293Y-56980184D01*
X114148231Y-56976133D01*
X114100426Y-56966624D01*
X114093318Y-56965210D01*
X114093317Y-56965210D01*
X114089748Y-56964500D01*
X113950252Y-56964500D01*
X113946683Y-56965210D01*
X113946682Y-56965210D01*
X113939574Y-56966624D01*
X113891769Y-56976133D01*
X113885707Y-56980184D01*
X113885706Y-56980184D01*
X113861113Y-56996617D01*
X113825448Y-57020448D01*
X113781133Y-57086769D01*
X113769500Y-57145252D01*
X113769500Y-57583311D01*
X113752187Y-57630877D01*
X113708350Y-57656187D01*
X113695552Y-57657311D01*
X113620989Y-57657364D01*
X113544551Y-57657418D01*
X113496974Y-57640139D01*
X113471633Y-57596320D01*
X113470500Y-57583418D01*
X113470500Y-57145252D01*
X113458867Y-57086769D01*
X113414552Y-57020448D01*
X113378887Y-56996617D01*
X113354294Y-56980184D01*
X113354293Y-56980184D01*
X113348231Y-56976133D01*
X113300426Y-56966624D01*
X113293318Y-56965210D01*
X113293317Y-56965210D01*
X113289748Y-56964500D01*
X113150252Y-56964500D01*
X113146683Y-56965210D01*
X113146682Y-56965210D01*
X113139574Y-56966624D01*
X113091769Y-56976133D01*
X113085707Y-56980184D01*
X113085706Y-56980184D01*
X113061113Y-56996617D01*
X113011944Y-57008649D01*
X112978887Y-56996617D01*
X112954294Y-56980184D01*
X112954293Y-56980184D01*
X112948231Y-56976133D01*
X112900426Y-56966624D01*
X112893318Y-56965210D01*
X112893317Y-56965210D01*
X112889748Y-56964500D01*
X112750252Y-56964500D01*
X112746683Y-56965210D01*
X112746682Y-56965210D01*
X112739574Y-56966624D01*
X112691769Y-56976133D01*
X112685707Y-56980184D01*
X112685706Y-56980184D01*
X112661113Y-56996617D01*
X112611944Y-57008649D01*
X112578887Y-56996617D01*
X112554294Y-56980184D01*
X112554293Y-56980184D01*
X112548231Y-56976133D01*
X112500426Y-56966624D01*
X112493318Y-56965210D01*
X112493317Y-56965210D01*
X112489748Y-56964500D01*
X112350252Y-56964500D01*
X112346683Y-56965210D01*
X112346682Y-56965210D01*
X112339574Y-56966624D01*
X112291769Y-56976133D01*
X112285707Y-56980184D01*
X112285706Y-56980184D01*
X112261113Y-56996617D01*
X112211944Y-57008649D01*
X112178887Y-56996617D01*
X112154294Y-56980184D01*
X112154293Y-56980184D01*
X112148231Y-56976133D01*
X112100426Y-56966624D01*
X112093318Y-56965210D01*
X112093317Y-56965210D01*
X112089748Y-56964500D01*
X111950252Y-56964500D01*
X111946683Y-56965210D01*
X111946682Y-56965210D01*
X111939574Y-56966624D01*
X111891769Y-56976133D01*
X111885707Y-56980184D01*
X111885706Y-56980184D01*
X111861113Y-56996617D01*
X111811944Y-57008649D01*
X111778887Y-56996617D01*
X111754294Y-56980184D01*
X111754293Y-56980184D01*
X111748231Y-56976133D01*
X111700426Y-56966624D01*
X111693318Y-56965210D01*
X111693317Y-56965210D01*
X111689748Y-56964500D01*
X111550252Y-56964500D01*
X111546683Y-56965210D01*
X111546682Y-56965210D01*
X111539574Y-56966624D01*
X111491769Y-56976133D01*
X111485707Y-56980184D01*
X111485706Y-56980184D01*
X111461113Y-56996617D01*
X111411944Y-57008649D01*
X111378887Y-56996617D01*
X111354294Y-56980184D01*
X111354293Y-56980184D01*
X111348231Y-56976133D01*
X111300426Y-56966624D01*
X111293318Y-56965210D01*
X111293317Y-56965210D01*
X111289748Y-56964500D01*
X111150252Y-56964500D01*
X111146683Y-56965210D01*
X111146682Y-56965210D01*
X111139574Y-56966624D01*
X111091769Y-56976133D01*
X111085707Y-56980184D01*
X111085706Y-56980184D01*
X111061113Y-56996617D01*
X111011944Y-57008649D01*
X110978887Y-56996617D01*
X110954294Y-56980184D01*
X110954293Y-56980184D01*
X110948231Y-56976133D01*
X110900426Y-56966624D01*
X110893318Y-56965210D01*
X110893317Y-56965210D01*
X110889748Y-56964500D01*
X110750252Y-56964500D01*
X110746683Y-56965210D01*
X110746682Y-56965210D01*
X110739574Y-56966624D01*
X110691769Y-56976133D01*
X110685707Y-56980184D01*
X110685706Y-56980184D01*
X110661113Y-56996617D01*
X110625448Y-57020448D01*
X110581133Y-57086769D01*
X110569500Y-57145252D01*
X110569500Y-57585563D01*
X110552187Y-57633129D01*
X110508350Y-57658439D01*
X110495552Y-57659563D01*
X110098522Y-57659843D01*
X109949052Y-57659948D01*
X109901474Y-57642669D01*
X109876133Y-57598849D01*
X109875000Y-57585948D01*
X109875000Y-57039500D01*
X109892313Y-56991934D01*
X109936150Y-56966624D01*
X109949000Y-56965500D01*
X110389748Y-56965500D01*
X110393317Y-56964790D01*
X110393318Y-56964790D01*
X110403705Y-56962724D01*
X110448231Y-56953867D01*
X110514552Y-56909552D01*
X110558867Y-56843231D01*
X110570500Y-56784748D01*
X110570500Y-56645252D01*
X110558867Y-56586769D01*
X110544162Y-56564761D01*
X110538383Y-56556113D01*
X110526351Y-56506944D01*
X110538383Y-56473887D01*
X110554816Y-56449294D01*
X110554816Y-56449293D01*
X110558867Y-56443231D01*
X110570500Y-56384748D01*
X110570500Y-56245252D01*
X110558867Y-56186769D01*
X110538383Y-56156113D01*
X110526351Y-56106944D01*
X110538383Y-56073887D01*
X110554816Y-56049294D01*
X110554816Y-56049293D01*
X110558867Y-56043231D01*
X110570500Y-55984748D01*
X110570500Y-55845252D01*
X110558867Y-55786769D01*
X110538383Y-55756113D01*
X110526351Y-55706944D01*
X110538383Y-55673887D01*
X110554816Y-55649294D01*
X110554816Y-55649293D01*
X110558867Y-55643231D01*
X110570500Y-55584748D01*
X110570500Y-55445252D01*
X110558867Y-55386769D01*
X110514552Y-55320448D01*
X110448231Y-55276133D01*
X110403705Y-55267276D01*
X110393318Y-55265210D01*
X110393317Y-55265210D01*
X110389748Y-55264500D01*
X109949000Y-55264500D01*
X109901434Y-55247187D01*
X109876124Y-55203350D01*
X109875000Y-55190500D01*
X109875000Y-55039500D01*
X109892313Y-54991934D01*
X109936150Y-54966624D01*
X109949000Y-54965500D01*
X110389748Y-54965500D01*
X110393317Y-54964790D01*
X110393318Y-54964790D01*
X110403705Y-54962724D01*
X110448231Y-54953867D01*
X110514552Y-54909552D01*
X110558867Y-54843231D01*
X110570500Y-54784748D01*
X110570500Y-54645252D01*
X110558867Y-54586769D01*
X110538383Y-54556113D01*
X110526351Y-54506944D01*
X110538383Y-54473887D01*
X110554816Y-54449294D01*
X110554816Y-54449293D01*
X110558867Y-54443231D01*
X110570500Y-54384748D01*
X110570500Y-54245252D01*
X110558867Y-54186769D01*
X110538383Y-54156113D01*
X110526351Y-54106944D01*
X110538383Y-54073887D01*
X110554816Y-54049294D01*
X110554816Y-54049293D01*
X110558867Y-54043231D01*
X110570500Y-53984748D01*
X110570500Y-53845252D01*
X110558867Y-53786769D01*
X110538383Y-53756113D01*
X110526351Y-53706944D01*
X110538383Y-53673887D01*
X110554816Y-53649294D01*
X110554816Y-53649293D01*
X110558867Y-53643231D01*
X110570500Y-53584748D01*
X110570500Y-53445252D01*
X110558867Y-53386769D01*
X110538383Y-53356113D01*
X110526351Y-53306944D01*
X110538383Y-53273887D01*
X110554816Y-53249294D01*
X110554816Y-53249293D01*
X110558867Y-53243231D01*
X110570500Y-53184748D01*
X110570500Y-53045252D01*
X110558867Y-52986769D01*
X110538383Y-52956113D01*
X110526351Y-52906944D01*
X110538383Y-52873887D01*
X110554816Y-52849294D01*
X110554816Y-52849293D01*
X110558867Y-52843231D01*
X110570500Y-52784748D01*
X110570500Y-52645252D01*
X110558867Y-52586769D01*
X110538383Y-52556113D01*
X110526351Y-52506944D01*
X110538383Y-52473887D01*
X110554816Y-52449294D01*
X110554816Y-52449293D01*
X110558867Y-52443231D01*
X110568262Y-52396000D01*
X110569790Y-52388318D01*
X110569790Y-52388317D01*
X110570500Y-52384748D01*
X110570500Y-52245252D01*
X110558867Y-52186769D01*
X110538383Y-52156113D01*
X110526351Y-52106944D01*
X110538383Y-52073887D01*
X110554816Y-52049294D01*
X110554816Y-52049293D01*
X110558867Y-52043231D01*
X110570500Y-51984748D01*
X110570500Y-51845252D01*
X110558867Y-51786769D01*
X110514552Y-51720448D01*
X110506572Y-51715116D01*
X110454294Y-51680184D01*
X110454293Y-51680184D01*
X110448231Y-51676133D01*
X110403705Y-51667276D01*
X110393318Y-51665210D01*
X110393317Y-51665210D01*
X110389748Y-51664500D01*
X109939031Y-51664500D01*
X109891465Y-51647187D01*
X109875000Y-51623674D01*
X109875000Y-50555000D01*
X110569500Y-50555000D01*
X110569500Y-51084748D01*
G37*
%TD.AperFunction*%
%TD*%
%TA.AperFunction,Conductor*%
%TO.N,+3V3*%
G36*
X121483332Y-45247374D02*
G01*
X121508741Y-45291154D01*
X121509895Y-45304271D01*
X121506177Y-47925000D01*
X121500876Y-51662180D01*
X121483496Y-51709722D01*
X121460471Y-51728010D01*
X121409697Y-51753880D01*
X121409694Y-51753882D01*
X121404511Y-51756523D01*
X121373208Y-51787826D01*
X121327332Y-51809218D01*
X121320882Y-51809500D01*
X119859413Y-51809500D01*
X119811847Y-51792187D01*
X119807087Y-51787826D01*
X119644733Y-51625473D01*
X119635530Y-51614259D01*
X119629651Y-51605460D01*
X119629650Y-51605459D01*
X119625601Y-51599399D01*
X119572536Y-51563943D01*
X119548803Y-51548084D01*
X119548801Y-51548083D01*
X119542741Y-51544034D01*
X119507006Y-51536926D01*
X119493558Y-51534251D01*
X119450283Y-51507991D01*
X119440366Y-51491712D01*
X119418556Y-51442609D01*
X119380154Y-51404274D01*
X119346802Y-51370980D01*
X119346800Y-51370979D01*
X119341966Y-51366153D01*
X119242987Y-51322395D01*
X119226685Y-51320494D01*
X119220286Y-51319748D01*
X119220284Y-51319748D01*
X119218158Y-51319500D01*
X118851842Y-51319500D01*
X118839243Y-51320999D01*
X118832022Y-51321858D01*
X118832020Y-51321858D01*
X118826511Y-51322514D01*
X118821440Y-51324766D01*
X118821438Y-51324767D01*
X118733851Y-51363671D01*
X118733849Y-51363672D01*
X118727609Y-51366444D01*
X118689274Y-51404846D01*
X118655980Y-51438198D01*
X118655979Y-51438200D01*
X118651153Y-51443034D01*
X118607395Y-51542013D01*
X118604500Y-51566842D01*
X118604500Y-51993158D01*
X118607514Y-52018489D01*
X118609766Y-52023560D01*
X118609767Y-52023562D01*
X118648527Y-52110823D01*
X118651444Y-52117391D01*
X118657119Y-52123056D01*
X118687745Y-52153628D01*
X118709178Y-52199485D01*
X118696120Y-52248391D01*
X118654681Y-52277462D01*
X118635465Y-52280000D01*
X117513142Y-52280000D01*
X117465576Y-52262687D01*
X117440564Y-52220437D01*
X117435289Y-52193920D01*
X117433867Y-52186769D01*
X117413383Y-52156113D01*
X117401351Y-52106944D01*
X117413383Y-52073887D01*
X117429816Y-52049294D01*
X117429816Y-52049293D01*
X117433867Y-52043231D01*
X117445500Y-51984748D01*
X117445500Y-51845252D01*
X117433867Y-51786769D01*
X117389552Y-51720448D01*
X117323231Y-51676133D01*
X117278705Y-51667276D01*
X117268318Y-51665210D01*
X117268317Y-51665210D01*
X117264748Y-51664500D01*
X116450252Y-51664500D01*
X116446683Y-51665210D01*
X116446682Y-51665210D01*
X116436295Y-51667276D01*
X116391769Y-51676133D01*
X116325448Y-51720448D01*
X116281133Y-51786769D01*
X116269500Y-51845252D01*
X116269500Y-51984748D01*
X116281133Y-52043231D01*
X116285184Y-52049293D01*
X116285184Y-52049294D01*
X116301617Y-52073887D01*
X116313649Y-52123056D01*
X116301617Y-52156113D01*
X116281133Y-52186769D01*
X116269500Y-52245252D01*
X116269500Y-52280000D01*
X115955000Y-52280000D01*
X115955000Y-49836469D01*
X115970853Y-49792914D01*
X115970160Y-49792439D01*
X115972009Y-49789739D01*
X115972313Y-49788903D01*
X115973377Y-49787741D01*
X115974021Y-49786801D01*
X115978847Y-49781966D01*
X116022605Y-49682987D01*
X116025500Y-49658158D01*
X116025500Y-49291842D01*
X116022486Y-49266511D01*
X115978556Y-49167609D01*
X115973718Y-49162779D01*
X115969851Y-49157153D01*
X115971999Y-49155677D01*
X115955287Y-49119915D01*
X115955000Y-49113405D01*
X115955000Y-48876469D01*
X115970854Y-48832912D01*
X115970161Y-48832438D01*
X115972008Y-48829740D01*
X115972313Y-48828903D01*
X115973379Y-48827739D01*
X115974023Y-48826798D01*
X115978847Y-48821966D01*
X115981609Y-48815719D01*
X115981610Y-48815718D01*
X115987350Y-48802733D01*
X116022417Y-48766229D01*
X116072744Y-48760805D01*
X116114784Y-48789001D01*
X116122660Y-48802615D01*
X116131444Y-48822391D01*
X116169846Y-48860726D01*
X116203198Y-48894020D01*
X116203200Y-48894021D01*
X116208034Y-48898847D01*
X116307013Y-48942605D01*
X116323315Y-48944506D01*
X116329714Y-48945252D01*
X116329716Y-48945252D01*
X116331842Y-48945500D01*
X116758158Y-48945500D01*
X116770757Y-48944001D01*
X116777978Y-48943142D01*
X116777980Y-48943142D01*
X116783489Y-48942486D01*
X116788560Y-48940234D01*
X116788562Y-48940233D01*
X116876149Y-48901329D01*
X116876151Y-48901328D01*
X116882391Y-48898556D01*
X116958847Y-48821966D01*
X116964856Y-48808374D01*
X116999924Y-48771870D01*
X117050251Y-48766448D01*
X117092290Y-48794643D01*
X117100166Y-48808257D01*
X117106444Y-48822391D01*
X117144846Y-48860726D01*
X117178198Y-48894020D01*
X117178200Y-48894021D01*
X117183034Y-48898847D01*
X117282013Y-48942605D01*
X117298315Y-48944506D01*
X117304714Y-48945252D01*
X117304716Y-48945252D01*
X117306842Y-48945500D01*
X117733158Y-48945500D01*
X117745757Y-48944001D01*
X117752978Y-48943142D01*
X117752980Y-48943142D01*
X117758489Y-48942486D01*
X117763560Y-48940234D01*
X117763562Y-48940233D01*
X117851149Y-48901329D01*
X117851151Y-48901328D01*
X117857391Y-48898556D01*
X117895726Y-48860154D01*
X117929020Y-48826802D01*
X117929021Y-48826800D01*
X117933847Y-48821966D01*
X117977605Y-48722987D01*
X117980500Y-48698158D01*
X117980500Y-48331842D01*
X117977486Y-48306511D01*
X117958405Y-48263552D01*
X117936329Y-48213851D01*
X117936328Y-48213849D01*
X117933556Y-48207609D01*
X117895154Y-48169274D01*
X117861802Y-48135980D01*
X117861800Y-48135979D01*
X117856966Y-48131153D01*
X117757987Y-48087395D01*
X117741685Y-48085494D01*
X117735286Y-48084748D01*
X117735284Y-48084748D01*
X117733158Y-48084500D01*
X117306842Y-48084500D01*
X117294243Y-48085999D01*
X117287022Y-48086858D01*
X117287020Y-48086858D01*
X117281511Y-48087514D01*
X117276440Y-48089766D01*
X117276438Y-48089767D01*
X117188851Y-48128671D01*
X117188849Y-48128672D01*
X117182609Y-48131444D01*
X117106153Y-48208034D01*
X117103392Y-48214280D01*
X117103391Y-48214281D01*
X117100144Y-48221626D01*
X117065076Y-48258130D01*
X117014749Y-48263552D01*
X116972710Y-48235357D01*
X116964834Y-48221743D01*
X116961329Y-48213851D01*
X116961328Y-48213849D01*
X116958556Y-48207609D01*
X116881966Y-48131153D01*
X116875721Y-48128392D01*
X116875718Y-48128390D01*
X116854579Y-48119045D01*
X116818075Y-48083978D01*
X116810500Y-48051364D01*
X116810500Y-47996879D01*
X116827813Y-47949313D01*
X116871650Y-47924003D01*
X116885122Y-47922882D01*
X117135000Y-47925000D01*
X117135000Y-45313831D01*
X117152313Y-45266265D01*
X117196150Y-45240955D01*
X117208828Y-45239831D01*
X119378298Y-45234872D01*
X121435726Y-45230170D01*
X121483332Y-45247374D01*
G37*
%TD.AperFunction*%
%TD*%
%TA.AperFunction,Conductor*%
%TO.N,+1V1*%
G36*
X115059267Y-51291684D02*
G01*
X115064347Y-51295078D01*
X115082016Y-51302397D01*
X115104621Y-51306893D01*
X115117867Y-51305325D01*
X115117900Y-51305295D01*
X115120000Y-51297248D01*
X115120000Y-51275000D01*
X115320000Y-51275000D01*
X115320000Y-51294272D01*
X115324122Y-51306957D01*
X115324159Y-51306985D01*
X115326828Y-51307142D01*
X115383805Y-51329442D01*
X115416792Y-51380973D01*
X115420000Y-51405970D01*
X115420000Y-52396000D01*
X115401093Y-52454191D01*
X115351593Y-52490155D01*
X115321000Y-52495000D01*
X115169572Y-52495000D01*
X115111381Y-52476093D01*
X115099630Y-52466065D01*
X115051736Y-52418255D01*
X115045265Y-52411795D01*
X115004248Y-52393662D01*
X114951730Y-52370444D01*
X114951728Y-52370444D01*
X114944923Y-52367435D01*
X114937534Y-52366573D01*
X114937532Y-52366573D01*
X114928624Y-52365535D01*
X114919750Y-52364500D01*
X111920250Y-52364500D01*
X111894568Y-52367555D01*
X111887784Y-52370569D01*
X111887782Y-52370569D01*
X111838453Y-52392480D01*
X111794304Y-52412091D01*
X111716795Y-52489735D01*
X111672435Y-52590077D01*
X111669500Y-52615250D01*
X111669500Y-55614750D01*
X111672555Y-55640432D01*
X111717091Y-55740696D01*
X111794735Y-55818205D01*
X111803098Y-55821902D01*
X111888270Y-55859556D01*
X111888272Y-55859556D01*
X111895077Y-55862565D01*
X111902466Y-55863427D01*
X111902468Y-55863427D01*
X111911376Y-55864465D01*
X111920250Y-55865500D01*
X114906000Y-55865500D01*
X114964191Y-55884407D01*
X115000155Y-55933907D01*
X115005000Y-55964500D01*
X115005000Y-56246000D01*
X114986093Y-56304191D01*
X114936593Y-56340155D01*
X114906000Y-56345000D01*
X114470000Y-56345000D01*
X114470000Y-56446000D01*
X114451093Y-56504191D01*
X114401593Y-56540155D01*
X114371000Y-56545000D01*
X113874000Y-56545000D01*
X113815809Y-56526093D01*
X113779845Y-56476593D01*
X113775000Y-56446000D01*
X113775000Y-56345000D01*
X111344000Y-56345000D01*
X111285809Y-56326093D01*
X111249845Y-56276593D01*
X111245000Y-56246000D01*
X111245000Y-52064000D01*
X111263907Y-52005809D01*
X111313407Y-51969845D01*
X111344000Y-51965000D01*
X114220000Y-51965000D01*
X114220000Y-51374000D01*
X114238907Y-51315809D01*
X114288407Y-51279845D01*
X114319000Y-51275000D01*
X115004267Y-51275000D01*
X115059267Y-51291684D01*
G37*
%TD.AperFunction*%
%TD*%
%TA.AperFunction,Conductor*%
%TO.N,GND*%
G36*
X111868566Y-60827813D02*
G01*
X111893876Y-60871650D01*
X111895000Y-60884500D01*
X111895000Y-62895846D01*
X111877687Y-62943412D01*
X111833850Y-62968722D01*
X111820847Y-62969846D01*
X110725990Y-62967580D01*
X110434347Y-62966976D01*
X110386816Y-62949565D01*
X110361598Y-62905675D01*
X110360500Y-62892976D01*
X110360500Y-62786842D01*
X110357486Y-62761511D01*
X110313556Y-62662609D01*
X110315341Y-62661816D01*
X110305500Y-62630118D01*
X110305500Y-62009500D01*
X110322813Y-61961934D01*
X110366650Y-61936624D01*
X110379500Y-61935500D01*
X111094820Y-61935500D01*
X111098389Y-61934790D01*
X111098390Y-61934790D01*
X111131575Y-61928189D01*
X111131576Y-61928188D01*
X111138722Y-61926767D01*
X111188504Y-61893504D01*
X111221767Y-61843722D01*
X111230500Y-61799820D01*
X111230500Y-60884500D01*
X111247813Y-60836934D01*
X111291650Y-60811624D01*
X111304500Y-60810500D01*
X111821000Y-60810500D01*
X111868566Y-60827813D01*
G37*
%TD.AperFunction*%
%TA.AperFunction,Conductor*%
G36*
X108968417Y-59167813D02*
G01*
X108993727Y-59211650D01*
X108984937Y-59261500D01*
X108975465Y-59273844D01*
X108971496Y-59276496D01*
X108938233Y-59326278D01*
X108929500Y-59370180D01*
X108929500Y-61799820D01*
X108938233Y-61843722D01*
X108971496Y-61893504D01*
X109021278Y-61926767D01*
X109028424Y-61928188D01*
X109028425Y-61928189D01*
X109061610Y-61934790D01*
X109061611Y-61934790D01*
X109065180Y-61935500D01*
X109780500Y-61935500D01*
X109828066Y-61952813D01*
X109853376Y-61996650D01*
X109854500Y-62009500D01*
X109854500Y-62465500D01*
X109837187Y-62513066D01*
X109793350Y-62538376D01*
X109780500Y-62539500D01*
X109746842Y-62539500D01*
X109734243Y-62540999D01*
X109727022Y-62541858D01*
X109727020Y-62541858D01*
X109721511Y-62542514D01*
X109716440Y-62544766D01*
X109716438Y-62544767D01*
X109628851Y-62583671D01*
X109628849Y-62583672D01*
X109622609Y-62586444D01*
X109593557Y-62615547D01*
X109550980Y-62658198D01*
X109550979Y-62658200D01*
X109546153Y-62663034D01*
X109502395Y-62762013D01*
X109499500Y-62786842D01*
X109499500Y-62890886D01*
X109482187Y-62938452D01*
X109438350Y-62963762D01*
X109425347Y-62964886D01*
X107421247Y-62960738D01*
X107024347Y-62959916D01*
X106976816Y-62942505D01*
X106951598Y-62898615D01*
X106950500Y-62885916D01*
X106950500Y-62786842D01*
X106947486Y-62761511D01*
X106903556Y-62662609D01*
X106856412Y-62615547D01*
X106831802Y-62590980D01*
X106831800Y-62590979D01*
X106826966Y-62586153D01*
X106727987Y-62542395D01*
X106711685Y-62540494D01*
X106705286Y-62539748D01*
X106705284Y-62539748D01*
X106703158Y-62539500D01*
X106679500Y-62539500D01*
X106631934Y-62522187D01*
X106606624Y-62478350D01*
X106605500Y-62465500D01*
X106605500Y-62009500D01*
X106622813Y-61961934D01*
X106666650Y-61936624D01*
X106679500Y-61935500D01*
X107394820Y-61935500D01*
X107398389Y-61934790D01*
X107398390Y-61934790D01*
X107431575Y-61928189D01*
X107431576Y-61928188D01*
X107438722Y-61926767D01*
X107488504Y-61893504D01*
X107521767Y-61843722D01*
X107530500Y-61799820D01*
X107530500Y-59784057D01*
X107547813Y-59736491D01*
X107552174Y-59731731D01*
X108111731Y-59172174D01*
X108157607Y-59150782D01*
X108164057Y-59150500D01*
X108920851Y-59150500D01*
X108968417Y-59167813D01*
G37*
%TD.AperFunction*%
%TA.AperFunction,Conductor*%
G36*
X111868566Y-58372313D02*
G01*
X111893876Y-58416150D01*
X111895000Y-58429000D01*
X111895000Y-58577258D01*
X111877687Y-58624824D01*
X111873326Y-58629584D01*
X111825084Y-58677826D01*
X111779208Y-58699218D01*
X111772758Y-58699500D01*
X108047861Y-58699500D01*
X108043988Y-58699399D01*
X108011702Y-58697707D01*
X108003936Y-58697300D01*
X107996673Y-58700088D01*
X107981190Y-58706031D01*
X107970057Y-58709329D01*
X107953839Y-58712776D01*
X107953838Y-58712776D01*
X107946232Y-58714393D01*
X107939353Y-58719391D01*
X107922380Y-58728606D01*
X107921705Y-58728865D01*
X107921703Y-58728866D01*
X107914441Y-58731654D01*
X107897214Y-58748881D01*
X107888384Y-58756422D01*
X107868677Y-58770740D01*
X107864790Y-58777473D01*
X107864789Y-58777474D01*
X107864426Y-58778103D01*
X107852666Y-58793429D01*
X107433269Y-59212826D01*
X107387393Y-59234218D01*
X107380943Y-59234500D01*
X105365180Y-59234500D01*
X105361611Y-59235210D01*
X105361610Y-59235210D01*
X105328425Y-59241811D01*
X105328424Y-59241812D01*
X105321278Y-59243233D01*
X105271496Y-59276496D01*
X105238233Y-59326278D01*
X105229500Y-59370180D01*
X105229500Y-61799820D01*
X105238233Y-61843722D01*
X105271496Y-61893504D01*
X105321278Y-61926767D01*
X105328424Y-61928188D01*
X105328425Y-61928189D01*
X105361610Y-61934790D01*
X105361611Y-61934790D01*
X105365180Y-61935500D01*
X106080500Y-61935500D01*
X106128066Y-61952813D01*
X106153376Y-61996650D01*
X106154500Y-62009500D01*
X106154500Y-62615547D01*
X106141558Y-62657355D01*
X106140981Y-62658197D01*
X106136153Y-62663034D01*
X106092395Y-62762013D01*
X106089500Y-62786842D01*
X106089500Y-62883826D01*
X106072187Y-62931392D01*
X106028350Y-62956702D01*
X106015347Y-62957826D01*
X104876133Y-62955468D01*
X104723847Y-62955153D01*
X104676316Y-62937742D01*
X104651098Y-62893852D01*
X104650000Y-62881153D01*
X104650000Y-58429000D01*
X104667313Y-58381434D01*
X104711150Y-58356124D01*
X104724000Y-58355000D01*
X111821000Y-58355000D01*
X111868566Y-58372313D01*
G37*
%TD.AperFunction*%
%TA.AperFunction,Conductor*%
G36*
X111868066Y-59167813D02*
G01*
X111893376Y-59211650D01*
X111894500Y-59224500D01*
X111894501Y-59366610D01*
X111894501Y-59467414D01*
X111894759Y-59469586D01*
X111894870Y-59471453D01*
X111895000Y-59475832D01*
X111895000Y-60123999D01*
X111894748Y-60128302D01*
X111894873Y-60128309D01*
X111894748Y-60130456D01*
X111894500Y-60132585D01*
X111894500Y-60134727D01*
X111894501Y-60285500D01*
X111877189Y-60333066D01*
X111833351Y-60358376D01*
X111820501Y-60359500D01*
X111304500Y-60359500D01*
X111256934Y-60342187D01*
X111231624Y-60298350D01*
X111230500Y-60285500D01*
X111230500Y-59370180D01*
X111221767Y-59326278D01*
X111188504Y-59276496D01*
X111185839Y-59274715D01*
X111165431Y-59230950D01*
X111178532Y-59182055D01*
X111219996Y-59153021D01*
X111239149Y-59150500D01*
X111820500Y-59150500D01*
X111868066Y-59167813D01*
G37*
%TD.AperFunction*%
%TD*%
%TA.AperFunction,Conductor*%
%TO.N,+3V3*%
G36*
X108984756Y-42101870D02*
G01*
X109020741Y-42151355D01*
X109020766Y-42212541D01*
X108996603Y-42251991D01*
X108170403Y-43078192D01*
X108115886Y-43105969D01*
X108086798Y-43105397D01*
X108086746Y-43105925D01*
X108081896Y-43105447D01*
X108077133Y-43104500D01*
X107925032Y-43104500D01*
X107772868Y-43104501D01*
X107692505Y-43120485D01*
X107601376Y-43181376D01*
X107540485Y-43272505D01*
X107538583Y-43282068D01*
X107538582Y-43282070D01*
X107531835Y-43315991D01*
X107524500Y-43352867D01*
X107524501Y-43932132D01*
X107540485Y-44012495D01*
X107601376Y-44103624D01*
X107692505Y-44164515D01*
X107702068Y-44166417D01*
X107702070Y-44166418D01*
X107735991Y-44173165D01*
X107772867Y-44180500D01*
X107924968Y-44180500D01*
X108077132Y-44180499D01*
X108157495Y-44164515D01*
X108248624Y-44103624D01*
X108309515Y-44012495D01*
X108311417Y-44002932D01*
X108311418Y-44002930D01*
X108324552Y-43936897D01*
X108325500Y-43932133D01*
X108325499Y-43601914D01*
X108344406Y-43543724D01*
X108354495Y-43531910D01*
X108628526Y-43257879D01*
X108683043Y-43230102D01*
X108743475Y-43239673D01*
X108786740Y-43282938D01*
X108795070Y-43343171D01*
X108795925Y-43343255D01*
X108795574Y-43346818D01*
X108795627Y-43347200D01*
X108794500Y-43352867D01*
X108794501Y-43932132D01*
X108810485Y-44012495D01*
X108871376Y-44103624D01*
X108962505Y-44164515D01*
X108972068Y-44166417D01*
X108972070Y-44166418D01*
X109005991Y-44173165D01*
X109042867Y-44180500D01*
X109194968Y-44180500D01*
X109347132Y-44180499D01*
X109427495Y-44164515D01*
X109518624Y-44103624D01*
X109579515Y-44012495D01*
X109581417Y-44002932D01*
X109581418Y-44002930D01*
X109594552Y-43936897D01*
X109595500Y-43932133D01*
X109595499Y-43352868D01*
X109579515Y-43272505D01*
X109525273Y-43191327D01*
X109508664Y-43132439D01*
X109529841Y-43075035D01*
X109537584Y-43066322D01*
X109694408Y-42909497D01*
X109748925Y-42881719D01*
X109764412Y-42880500D01*
X110562143Y-42880500D01*
X110620334Y-42899407D01*
X110656298Y-42948907D01*
X110661143Y-42979633D01*
X110661108Y-43005633D01*
X110642122Y-43063799D01*
X110592574Y-43099696D01*
X110562108Y-43104500D01*
X110337561Y-43104501D01*
X110312868Y-43104501D01*
X110232505Y-43120485D01*
X110141376Y-43181376D01*
X110080485Y-43272505D01*
X110078583Y-43282068D01*
X110078582Y-43282070D01*
X110071835Y-43315991D01*
X110064500Y-43352867D01*
X110064501Y-43932132D01*
X110080485Y-44012495D01*
X110141376Y-44103624D01*
X110232505Y-44164515D01*
X110242068Y-44166417D01*
X110242070Y-44166418D01*
X110275991Y-44173165D01*
X110312867Y-44180500D01*
X110336859Y-44180500D01*
X110560382Y-44180499D01*
X110618571Y-44199406D01*
X110654535Y-44248906D01*
X110659381Y-44279633D01*
X110659278Y-44355634D01*
X110640292Y-44413799D01*
X110590743Y-44449696D01*
X110560278Y-44454500D01*
X107050054Y-44454500D01*
X106991863Y-44435593D01*
X106955899Y-44386093D01*
X106955899Y-44324907D01*
X106991863Y-44275407D01*
X107005109Y-44267290D01*
X107025984Y-44256654D01*
X107038429Y-44247612D01*
X107122612Y-44163429D01*
X107131654Y-44150984D01*
X107185702Y-44044909D01*
X107190457Y-44030274D01*
X107204391Y-43942297D01*
X107205000Y-43934558D01*
X107205000Y-43808180D01*
X107200878Y-43795495D01*
X107196757Y-43792500D01*
X106120681Y-43792500D01*
X106107996Y-43796622D01*
X106105001Y-43800743D01*
X106105001Y-43934556D01*
X106105610Y-43942298D01*
X106119544Y-44030275D01*
X106124298Y-44044908D01*
X106178346Y-44150984D01*
X106187388Y-44163429D01*
X106271571Y-44247612D01*
X106284016Y-44256654D01*
X106390091Y-44310702D01*
X106404725Y-44315456D01*
X106411805Y-44316578D01*
X106466321Y-44344357D01*
X106494097Y-44398874D01*
X106484525Y-44459306D01*
X106466320Y-44484363D01*
X106459606Y-44491077D01*
X106451496Y-44496496D01*
X106418233Y-44546278D01*
X106409500Y-44590180D01*
X106409500Y-48019820D01*
X106418233Y-48063722D01*
X106451496Y-48113504D01*
X106501278Y-48146767D01*
X106510838Y-48148669D01*
X106510839Y-48148669D01*
X106540417Y-48154553D01*
X106540422Y-48154553D01*
X106545180Y-48155500D01*
X106822395Y-48155500D01*
X106880586Y-48174407D01*
X106916550Y-48223907D01*
X106916550Y-48285093D01*
X106912578Y-48294681D01*
X106911779Y-48297140D01*
X106908242Y-48304082D01*
X106907023Y-48311776D01*
X106907023Y-48311777D01*
X106901605Y-48345987D01*
X106873828Y-48400503D01*
X106819311Y-48428281D01*
X106803824Y-48429500D01*
X106683885Y-48429500D01*
X106502868Y-48429501D01*
X106422505Y-48445485D01*
X106331376Y-48506376D01*
X106270485Y-48597505D01*
X106268583Y-48607068D01*
X106268583Y-48607069D01*
X106254500Y-48677867D01*
X106254501Y-49257132D01*
X106270485Y-49337495D01*
X106331376Y-49428624D01*
X106340504Y-49434723D01*
X106341762Y-49436319D01*
X106346378Y-49440935D01*
X106345831Y-49441482D01*
X106378381Y-49482773D01*
X106384500Y-49517037D01*
X106384500Y-49618410D01*
X106365593Y-49676601D01*
X106325689Y-49708885D01*
X106318849Y-49711924D01*
X106310490Y-49715637D01*
X106304030Y-49722108D01*
X106304029Y-49722109D01*
X106264326Y-49761880D01*
X106209834Y-49789705D01*
X106149393Y-49780186D01*
X106116097Y-49747441D01*
X106113780Y-49749152D01*
X106040465Y-49649892D01*
X106030108Y-49639535D01*
X105936800Y-49570616D01*
X105923867Y-49563769D01*
X105813125Y-49524879D01*
X105801423Y-49522311D01*
X105779285Y-49520218D01*
X105774649Y-49520000D01*
X105755680Y-49520000D01*
X105742995Y-49524122D01*
X105740000Y-49528243D01*
X105740000Y-50744320D01*
X105744122Y-50757005D01*
X105748243Y-50760000D01*
X105774649Y-50760000D01*
X105779285Y-50759782D01*
X105801423Y-50757689D01*
X105813125Y-50755121D01*
X105923867Y-50716231D01*
X105936800Y-50709384D01*
X106030108Y-50640465D01*
X106040465Y-50630108D01*
X106113780Y-50530848D01*
X106116185Y-50532625D01*
X106150690Y-50499182D01*
X106211265Y-50490556D01*
X106264193Y-50518018D01*
X106304439Y-50558193D01*
X106304441Y-50558195D01*
X106310908Y-50564650D01*
X106408183Y-50607655D01*
X106432585Y-50610500D01*
X106607768Y-50610500D01*
X106787414Y-50610499D01*
X106790329Y-50610152D01*
X106790334Y-50610152D01*
X106804930Y-50608416D01*
X106804932Y-50608416D01*
X106812310Y-50607538D01*
X106867136Y-50583185D01*
X106901154Y-50568075D01*
X106901156Y-50568074D01*
X106909510Y-50564363D01*
X106984650Y-50489092D01*
X107027655Y-50391817D01*
X107030500Y-50367415D01*
X107030499Y-49912586D01*
X107027538Y-49887690D01*
X106992872Y-49809646D01*
X106988075Y-49798846D01*
X106988074Y-49798844D01*
X106984363Y-49790490D01*
X106909092Y-49715350D01*
X106894471Y-49708886D01*
X106848894Y-49668066D01*
X106835500Y-49618340D01*
X106835500Y-49575142D01*
X106854407Y-49516951D01*
X106888086Y-49490401D01*
X106887494Y-49489515D01*
X106887495Y-49489515D01*
X106899738Y-49481334D01*
X106958624Y-49464726D01*
X107016028Y-49485903D01*
X107024726Y-49493632D01*
X107274555Y-49743460D01*
X107278103Y-49747200D01*
X107304493Y-49776509D01*
X107324946Y-49785615D01*
X107338601Y-49793029D01*
X107357382Y-49805226D01*
X107367659Y-49806854D01*
X107374933Y-49809646D01*
X107382563Y-49811268D01*
X107392068Y-49815500D01*
X107414461Y-49815500D01*
X107429948Y-49816719D01*
X107441790Y-49818595D01*
X107441792Y-49818595D01*
X107452065Y-49820222D01*
X107462111Y-49817530D01*
X107470739Y-49817078D01*
X107482723Y-49815500D01*
X107989500Y-49815500D01*
X108047691Y-49834407D01*
X108059504Y-49844496D01*
X108567499Y-50352490D01*
X108571066Y-50356250D01*
X108587633Y-50374649D01*
X108597447Y-50385549D01*
X108606952Y-50389781D01*
X108617908Y-50394659D01*
X108631552Y-50402067D01*
X108650337Y-50414266D01*
X108660615Y-50415894D01*
X108667889Y-50418686D01*
X108675513Y-50420307D01*
X108685022Y-50424540D01*
X108707416Y-50424540D01*
X108722903Y-50425759D01*
X108734745Y-50427635D01*
X108734747Y-50427635D01*
X108745020Y-50429262D01*
X108755066Y-50426570D01*
X108763694Y-50426118D01*
X108775678Y-50424540D01*
X110470500Y-50424540D01*
X110528691Y-50443447D01*
X110564655Y-50492947D01*
X110569500Y-50523540D01*
X110569500Y-51024774D01*
X110550593Y-51082965D01*
X110501093Y-51118929D01*
X110456208Y-51122737D01*
X110406719Y-51115517D01*
X110399595Y-51115000D01*
X110098180Y-51115000D01*
X110085495Y-51119122D01*
X110082500Y-51123243D01*
X110082500Y-51516000D01*
X110063593Y-51574191D01*
X110014093Y-51610155D01*
X109983500Y-51615000D01*
X109981500Y-51615000D01*
X109923309Y-51596093D01*
X109887345Y-51546593D01*
X109882500Y-51516000D01*
X109882500Y-51130681D01*
X109878378Y-51117996D01*
X109874257Y-51115001D01*
X109565443Y-51115001D01*
X109558246Y-51115528D01*
X109500645Y-51124006D01*
X109486127Y-51128517D01*
X109395784Y-51172873D01*
X109382658Y-51182270D01*
X109311899Y-51253152D01*
X109302526Y-51266293D01*
X109286756Y-51298556D01*
X109244215Y-51342532D01*
X109183950Y-51353105D01*
X109135647Y-51328996D01*
X109134641Y-51330359D01*
X109034167Y-51256147D01*
X109021234Y-51249300D01*
X108909073Y-51209912D01*
X108897371Y-51207344D01*
X108874886Y-51205218D01*
X108870250Y-51205000D01*
X108845680Y-51205000D01*
X108832995Y-51209122D01*
X108830000Y-51213243D01*
X108830000Y-51866000D01*
X108811093Y-51924191D01*
X108789359Y-51939982D01*
X108566006Y-51939483D01*
X108534845Y-51896593D01*
X108530000Y-51866000D01*
X108530000Y-51220681D01*
X108525878Y-51207996D01*
X108521757Y-51205001D01*
X108489753Y-51205001D01*
X108485110Y-51205220D01*
X108462626Y-51207345D01*
X108450930Y-51209910D01*
X108338766Y-51249300D01*
X108325833Y-51256147D01*
X108231316Y-51325959D01*
X108220962Y-51336313D01*
X108179324Y-51392685D01*
X108129542Y-51428258D01*
X108068359Y-51427777D01*
X108041895Y-51411433D01*
X108040977Y-51412774D01*
X108033432Y-51407608D01*
X108026966Y-51401153D01*
X108018611Y-51397459D01*
X108018609Y-51397458D01*
X107972262Y-51376969D01*
X107927987Y-51357395D01*
X107903158Y-51354500D01*
X107536842Y-51354500D01*
X107533937Y-51354846D01*
X107533931Y-51354846D01*
X107518887Y-51356636D01*
X107518885Y-51356637D01*
X107511511Y-51357514D01*
X107412609Y-51401444D01*
X107406154Y-51407910D01*
X107406153Y-51407911D01*
X107342608Y-51471567D01*
X107342607Y-51471569D01*
X107336153Y-51478034D01*
X107332459Y-51486389D01*
X107332458Y-51486391D01*
X107307006Y-51543963D01*
X107271462Y-51586248D01*
X107252463Y-51598943D01*
X107252461Y-51598945D01*
X107199399Y-51634399D01*
X107193983Y-51642505D01*
X107193982Y-51642506D01*
X107190839Y-51647210D01*
X107178527Y-51662213D01*
X107032528Y-51808212D01*
X106978011Y-51835989D01*
X106876777Y-51852023D01*
X106876776Y-51852023D01*
X106869082Y-51853242D01*
X106862144Y-51856777D01*
X106862141Y-51856778D01*
X106784000Y-51896593D01*
X106764511Y-51906523D01*
X106759005Y-51912029D01*
X106752997Y-51916394D01*
X106694587Y-51935300D01*
X104287136Y-51929921D01*
X104228987Y-51910883D01*
X104193134Y-51861303D01*
X104188357Y-51831102D01*
X104185696Y-50374649D01*
X105020000Y-50374649D01*
X105020218Y-50379285D01*
X105022311Y-50401423D01*
X105024879Y-50413125D01*
X105063769Y-50523867D01*
X105070616Y-50536800D01*
X105139535Y-50630108D01*
X105149892Y-50640465D01*
X105243200Y-50709384D01*
X105256133Y-50716231D01*
X105366875Y-50755121D01*
X105378577Y-50757689D01*
X105400715Y-50759782D01*
X105405351Y-50760000D01*
X105424320Y-50760000D01*
X105437005Y-50755878D01*
X105440000Y-50751757D01*
X105440000Y-50305680D01*
X105435878Y-50292995D01*
X105431757Y-50290000D01*
X105035680Y-50290000D01*
X105022995Y-50294122D01*
X105020000Y-50298243D01*
X105020000Y-50374649D01*
X104185696Y-50374649D01*
X104184965Y-49974320D01*
X105020000Y-49974320D01*
X105024122Y-49987005D01*
X105028243Y-49990000D01*
X105424320Y-49990000D01*
X105437005Y-49985878D01*
X105440000Y-49981757D01*
X105440000Y-49535680D01*
X105435878Y-49522995D01*
X105431757Y-49520000D01*
X105405351Y-49520000D01*
X105400715Y-49520218D01*
X105378577Y-49522311D01*
X105366875Y-49524879D01*
X105256133Y-49563769D01*
X105243200Y-49570616D01*
X105149892Y-49639535D01*
X105139535Y-49649892D01*
X105070616Y-49743200D01*
X105063769Y-49756133D01*
X105024879Y-49866875D01*
X105022311Y-49878577D01*
X105020218Y-49900715D01*
X105020000Y-49905351D01*
X105020000Y-49974320D01*
X104184965Y-49974320D01*
X104173120Y-43489505D01*
X104173097Y-43476820D01*
X106105000Y-43476820D01*
X106109122Y-43489505D01*
X106113243Y-43492500D01*
X106489320Y-43492500D01*
X106502005Y-43488378D01*
X106505000Y-43484257D01*
X106505000Y-42970681D01*
X106500878Y-42957996D01*
X106497117Y-42955263D01*
X106492702Y-42955610D01*
X106404725Y-42969544D01*
X106390092Y-42974298D01*
X106284016Y-43028346D01*
X106271571Y-43037388D01*
X106187388Y-43121571D01*
X106178346Y-43134016D01*
X106124298Y-43240091D01*
X106119543Y-43254726D01*
X106105609Y-43342703D01*
X106105000Y-43350442D01*
X106105000Y-43476820D01*
X104173097Y-43476820D01*
X104171559Y-42635247D01*
X104455001Y-42635247D01*
X104455220Y-42639890D01*
X104457345Y-42662374D01*
X104459910Y-42674070D01*
X104499300Y-42786234D01*
X104506147Y-42799167D01*
X104575959Y-42893684D01*
X104586316Y-42904041D01*
X104680833Y-42973853D01*
X104693766Y-42980700D01*
X104805927Y-43020088D01*
X104817629Y-43022656D01*
X104840114Y-43024782D01*
X104844750Y-43025000D01*
X104899320Y-43025000D01*
X104912005Y-43020878D01*
X104915000Y-43016757D01*
X104915000Y-43009319D01*
X105215000Y-43009319D01*
X105219122Y-43022004D01*
X105223243Y-43024999D01*
X105285247Y-43024999D01*
X105289890Y-43024780D01*
X105312374Y-43022655D01*
X105324070Y-43020090D01*
X105436234Y-42980700D01*
X105449167Y-42973853D01*
X105543684Y-42904041D01*
X105554041Y-42893684D01*
X105623853Y-42799167D01*
X105630700Y-42786234D01*
X105670088Y-42674073D01*
X105672656Y-42662371D01*
X105674782Y-42639886D01*
X105675000Y-42635250D01*
X105675000Y-42610680D01*
X105670878Y-42597995D01*
X105666757Y-42595000D01*
X105230680Y-42595000D01*
X105217995Y-42599122D01*
X105215000Y-42603243D01*
X105215000Y-43009319D01*
X104915000Y-43009319D01*
X104915000Y-42610680D01*
X104910878Y-42597995D01*
X104906757Y-42595000D01*
X104470681Y-42595000D01*
X104457996Y-42599122D01*
X104455001Y-42603243D01*
X104455001Y-42635247D01*
X104171559Y-42635247D01*
X104170735Y-42184103D01*
X104189536Y-42125878D01*
X104238970Y-42089823D01*
X104269694Y-42084922D01*
X104366197Y-42084882D01*
X104424396Y-42103765D01*
X104460380Y-42153250D01*
X104459725Y-42209712D01*
X104461204Y-42210037D01*
X104457344Y-42227629D01*
X104455218Y-42250114D01*
X104455000Y-42254750D01*
X104455000Y-42279320D01*
X104459122Y-42292005D01*
X104463243Y-42295000D01*
X105659319Y-42295000D01*
X105672004Y-42290878D01*
X105674999Y-42286757D01*
X105674999Y-42254753D01*
X105674780Y-42250110D01*
X105672655Y-42227626D01*
X105668796Y-42210034D01*
X105670001Y-42209770D01*
X105668708Y-42154938D01*
X105703494Y-42104604D01*
X105763516Y-42084301D01*
X106825459Y-42083860D01*
X106883657Y-42102743D01*
X106919642Y-42152228D01*
X106924500Y-42182860D01*
X106924500Y-42245526D01*
X106905593Y-42303717D01*
X106895504Y-42315530D01*
X106846523Y-42364511D01*
X106842988Y-42371448D01*
X106842987Y-42371450D01*
X106796778Y-42462141D01*
X106796777Y-42462144D01*
X106793242Y-42469082D01*
X106774882Y-42585000D01*
X106776101Y-42592696D01*
X106788990Y-42674070D01*
X106793242Y-42700918D01*
X106796777Y-42707856D01*
X106796778Y-42707859D01*
X106836712Y-42786234D01*
X106846523Y-42805489D01*
X106850854Y-42809820D01*
X106869501Y-42867208D01*
X106850594Y-42925399D01*
X106812260Y-42953251D01*
X106805000Y-42963243D01*
X106805000Y-43476820D01*
X106809122Y-43489505D01*
X106813243Y-43492500D01*
X107189319Y-43492500D01*
X107202004Y-43488378D01*
X107204999Y-43484257D01*
X107204999Y-43350444D01*
X107204390Y-43342702D01*
X107190456Y-43254725D01*
X107185702Y-43240092D01*
X107131654Y-43134016D01*
X107118029Y-43115263D01*
X107119657Y-43114080D01*
X107096592Y-43068811D01*
X107106163Y-43008379D01*
X107149428Y-42965114D01*
X107178885Y-42955543D01*
X107258224Y-42942977D01*
X107258226Y-42942976D01*
X107265918Y-42941758D01*
X107272856Y-42938223D01*
X107272859Y-42938222D01*
X107363550Y-42892013D01*
X107363552Y-42892012D01*
X107370489Y-42888477D01*
X107453477Y-42805489D01*
X107457013Y-42798550D01*
X107503222Y-42707859D01*
X107503223Y-42707856D01*
X107506758Y-42700918D01*
X107511011Y-42674070D01*
X107523899Y-42592696D01*
X107525118Y-42585000D01*
X107506758Y-42469082D01*
X107503223Y-42462144D01*
X107503222Y-42462141D01*
X107457013Y-42371450D01*
X107457012Y-42371448D01*
X107453477Y-42364511D01*
X107404496Y-42315530D01*
X107376719Y-42261013D01*
X107375500Y-42245526D01*
X107375500Y-42182590D01*
X107394407Y-42124399D01*
X107443907Y-42088435D01*
X107474456Y-42083590D01*
X108926558Y-42082987D01*
X108984756Y-42101870D01*
G37*
%TD.AperFunction*%
%TD*%
M02*
