M48
; DRILL file {KiCad (6.0.2-0)} date 2022 March 31, Thursday 23:17:23
; FORMAT={-:-/ absolute / metric / decimal}
; #@! TF.CreationDate,2022-03-31T23:17:23+02:00
; #@! TF.GenerationSoftware,Kicad,Pcbnew,(6.0.2-0)
; #@! TF.FileFunction,Plated,1,2,PTH
FMAT,2
METRIC
; #@! TA.AperFunction,Plated,PTH,ViaDrill
T1C0.200
; #@! TA.AperFunction,Plated,PTH,ViaDrill
T2C0.350
; #@! TA.AperFunction,Plated,PTH,ComponentDrill
T3C0.350
; #@! TA.AperFunction,Plated,PTH,ComponentDrill
T4C0.500
; #@! TA.AperFunction,Plated,PTH,ComponentDrill
T5C1.000
%
G90
G05
T1
X104.315Y-41.575
X104.875Y-62.685
X106.985Y-52.21
X107.0Y-55.13
X107.15Y-42.585
X107.265Y-48.42
X108.135Y-62.76
X109.835Y-48.38
X110.33Y-37.51
X111.31Y-58.445
X111.615Y-59.785
X111.615Y-62.695
X112.8Y-46.685
X113.36Y-61.005
X113.73Y-47.73
X114.34Y-61.0
X114.35Y-58.605
X114.68Y-63.03
X116.585Y-47.655
X117.11Y-42.965
X118.385Y-54.46
X119.375Y-58.485
X119.81Y-43.07
X120.315Y-43.57
X121.105Y-46.61
X121.625Y-52.06
T2
X112.859Y-49.236
X114.12Y-56.185
X114.825Y-51.835
T3
X112.145Y-52.84
X112.145Y-54.115
X112.145Y-55.39
X113.42Y-52.84
X113.42Y-54.115
X113.42Y-55.39
X114.695Y-52.84
X114.695Y-54.115
X114.695Y-55.39
T4
G00X110.7Y-66.135
M15
G01X110.95Y-66.135
M16
G05
G00X112.7Y-66.135
M15
G01X112.95Y-66.135
M16
G05
G00X114.7Y-66.135
M15
G01X114.95Y-66.135
M16
G05
T5
G00X107.6Y-33.33
M15
G01X107.6Y-31.82
M16
G05
G00X119.0Y-33.33
M15
G01X119.0Y-31.82
M16
G05
T0
M30
